<svg id="Capa_1" data-name="Capa 1" xmlns="http://www.w3.org/2000/svg" viewBox="0 0 16.95 19.37"><defs><style>.cls-1{fill:#fff;}</style></defs><path class="cls-1" d="M10,.32A1.21,1.21,0,0,0,8.81,1.53v.72A6.06,6.06,0,0,0,4,8.18V8.9a7.28,7.28,0,0,1-1.84,4.82L1.85,14a1.21,1.21,0,0,0,.91,2H17.28a1.22,1.22,0,0,0,1.11-.71,1.19,1.19,0,0,0-.2-1.3l-.28-.32A7.26,7.26,0,0,1,16.07,8.9V8.18a6.06,6.06,0,0,0-4.84-5.93V1.53A1.21,1.21,0,0,0,10,.32ZM11.73,19a2.41,2.41,0,0,0,.71-1.72H7.6A2.43,2.43,0,0,0,11.73,19Z" transform="translate(-1.55 -0.32)"/></svg>