<svg width="60" height="50" viewBox="0 0 60 50" fill="none" xmlns="http://www.w3.org/2000/svg">
<g clip-path="url(#clip0_1009_789)">
<path d="M10.2202 12.11C16.6366 6.94697 24.2392 3.46419 32.3405 1.97668C32.3405 5.01312 32.5549 6.31105 35.9141 7.04932C39.2732 7.78759 48.1833 10.4192 52.7336 18.5163C46.3846 16.7183 31.9117 11.1455 20.1547 22.9698C18.487 17.397 14.9969 12.1577 10.2202 12.11Z" fill="#FF4D1D"/>
<path d="M24.3835 13.6937C21.1673 17.266 19.857 24.7916 20.5121 30.0071C21.8224 40.4501 31.8999 46.3682 42.3704 43.558C45.2074 42.8006 47.7892 41.2962 49.8466 39.2018C51.904 37.1074 53.3618 34.4997 54.0678 31.6504C54.7753 28.9933 54.8628 26.2093 54.3238 23.513C53.7848 20.8168 52.6335 18.2803 50.9588 16.0991C48.9927 13.4412 46.4946 11.2216 43.6234 9.58157C40.7523 7.94151 37.5711 6.91692 34.2822 6.573C30.8874 6.27531 32.8647 2.09574 32.9719 1.89331C11.9713 5.91808 -0.774349 19.5166 1.44126 30.6621C1.87403 32.8873 2.79452 34.9891 4.13657 36.8164C5.47863 38.6437 7.20892 40.1512 9.20313 41.2305C11.1973 42.3098 13.4059 42.9341 15.6703 43.0586C17.9346 43.1831 20.1983 42.8046 22.2989 41.9505C23.4387 41.472 24.4959 40.817 25.4317 40.0095" stroke="white" stroke-width="2" stroke-linecap="round" stroke-linejoin="round"/>
<path d="M20.286 24.7201C18.8089 11.6218 9.66064 12.6578 9.66064 12.6578" stroke="white" stroke-width="2" stroke-linecap="round" stroke-linejoin="round"/>
<path d="M52.6978 18.7783C52.6978 18.7783 31.3875 8.44249 20.2856 24.5535" stroke="white" stroke-width="2" stroke-linecap="round" stroke-linejoin="round"/>
<path d="M45.8485 21.9849L45.098 21.5443C44.6581 21.4744 44.2074 21.5464 43.8112 21.7498C43.4149 21.9532 43.0938 22.2774 42.8943 22.6756C41.0957 25.5096 39.2374 28.3198 37.4149 31.1419C37.2839 31.3443 37.129 31.5229 36.9861 31.7134C36.9481 31.6355 36.9284 31.55 36.9284 31.4634C36.9284 31.3767 36.9481 31.2912 36.9861 31.2133L39.9521 23.4376C40.1369 23.0145 40.146 22.5352 39.9774 22.1053C39.8087 21.6755 39.4761 21.3302 39.0528 21.1454C38.8432 21.0539 38.6176 21.0046 38.3889 21.0003C38.1602 20.996 37.9329 21.0367 37.72 21.1202C37.29 21.2888 36.9446 21.6213 36.7597 22.0444C35.4971 24.938 34.2583 27.8315 33.0075 30.7251C32.6563 31.6068 32.2587 32.4693 31.8163 33.309C31.7418 33.4821 31.623 33.6325 31.4718 33.7451C31.3206 33.8576 31.1424 33.9283 30.9552 33.9501C30.7679 33.9718 30.5783 33.9438 30.4053 33.8689C30.2323 33.794 30.0822 33.6748 29.97 33.5234C29.7675 33.2625 29.6215 32.9625 29.5412 32.6422C29.2315 31.5348 28.9694 30.4274 28.6716 29.3319C28.6206 29.0242 28.5023 28.7315 28.3252 28.4747C28.148 28.218 27.9163 28.0034 27.6467 27.8465C27.377 27.6895 27.0761 27.594 26.7652 27.5667C26.4544 27.5394 26.1414 27.5811 25.8485 27.6887C25.5451 27.7382 25.2554 27.8506 24.998 28.0188C24.7407 28.187 24.5213 28.4071 24.3542 28.665C24.187 28.923 24.0757 29.213 24.0274 29.5165C23.9791 29.8201 23.9948 30.1303 24.0736 30.4274C24.7645 33.2495 25.4673 36.0716 26.2416 38.8699C26.698 40.7122 27.5883 42.4187 28.8384 43.8473C29.3863 44.4426 30.0295 44.9666 30.5775 45.5143L32.0903 46.4074C32.2213 46.4074 32.3643 46.4669 32.4953 46.5146C33.7932 47.0462 35.2155 47.1986 36.5967 46.9541C37.9778 46.7096 39.2612 46.0782 40.2976 45.1333C43.4661 42.3469 46.5275 39.4295 49.6245 36.5598C49.8153 36.4133 49.9738 36.229 50.0902 36.0184C50.2065 35.8079 50.2782 35.5757 50.3008 35.3363C50.3234 35.0968 50.2964 34.8553 50.2214 34.6267C50.1465 34.3982 50.0253 34.1875 49.8653 34.0079C49.7053 33.8283 49.51 33.6836 49.2915 33.5827C49.0731 33.4819 48.8362 33.4272 48.5957 33.4219C48.3551 33.4167 48.1161 33.4611 47.8935 33.5523C47.6708 33.6435 47.4694 33.7796 47.3017 33.952L43.216 37.2862C43.0849 37.3933 42.9301 37.4767 42.7991 37.572C43.5376 36.4526 44.3476 35.4167 45.1814 34.3688C46.4917 32.6898 47.8259 31.0228 49.1242 29.3319C49.3001 29.1246 49.4233 28.878 49.4836 28.613C49.5438 28.348 49.5392 28.0724 49.4703 27.8095C49.4013 27.5466 49.27 27.3042 49.0874 27.1028C48.9048 26.9015 48.6764 26.7471 48.4214 26.6527C48.088 26.4996 47.7126 26.4634 47.356 26.5498C46.9994 26.6362 46.6823 26.8403 46.456 27.129C44.9313 28.8794 43.4423 30.5703 41.9414 32.285L40.6549 33.7496L40.4882 33.6424C42.263 30.6179 44.0617 27.5815 45.8366 24.5808C46.1242 24.2098 46.2813 23.7542 46.2834 23.2849C46.2856 22.8155 46.1327 22.3585 45.8485 21.9849Z" fill="white"/>
<path d="M47.7715 23.994L47.021 23.5415C46.5812 23.4716 46.1304 23.5435 45.7342 23.7469C45.3379 23.9503 45.0168 24.2746 44.8174 24.6727C43.0068 27.5186 41.1604 30.3288 39.326 33.139C39.1977 33.3371 39.0585 33.5279 38.9091 33.7106C38.8712 33.6326 38.8514 33.5471 38.8514 33.4605C38.8514 33.3739 38.8712 33.2884 38.9091 33.2104L41.8751 25.4348C41.9659 25.2245 42.0143 24.9983 42.0176 24.7693C42.0209 24.5403 41.979 24.3129 41.8944 24.1C41.8098 23.8872 41.6841 23.6931 41.5244 23.5288C41.3647 23.3645 41.1743 23.2333 40.9639 23.1426C40.7535 23.0519 40.5273 23.0035 40.2982 23.0002C40.0691 22.9969 39.8416 23.0387 39.6286 23.1233C39.4157 23.2079 39.2215 23.3336 39.0572 23.4932C38.8928 23.6528 38.7616 23.8432 38.6708 24.0535C37.4797 26.9351 36.1813 29.8406 34.9305 32.7222C34.5816 33.6049 34.184 34.4676 33.7393 35.3062C33.6677 35.4821 33.5502 35.6356 33.3989 35.7505C33.2477 35.8654 33.0683 35.9376 32.8796 35.9595C32.6909 35.9814 32.4998 35.9523 32.3262 35.875C32.1526 35.7978 32.003 35.6754 31.893 35.5205C31.685 35.2631 31.5383 34.9618 31.4642 34.6394C31.1545 33.5439 30.8924 32.4245 30.5946 31.329C30.5375 31.0316 30.4172 30.7499 30.242 30.5028C30.0668 30.2557 29.8406 30.049 29.5787 29.8967C29.3168 29.7444 29.0254 29.6499 28.7239 29.6197C28.4224 29.5895 28.118 29.6242 27.831 29.7215C27.5318 29.7714 27.2461 29.8829 26.9921 30.049C26.7382 30.215 26.5215 30.4319 26.3558 30.686C26.19 30.9401 26.0789 31.2258 26.0294 31.5251C25.9799 31.8244 25.993 32.1306 26.0681 32.4245C26.759 35.2466 27.4618 38.0687 28.2361 40.867C28.6863 42.7104 29.5682 44.4204 30.809 45.8563C31.357 46.4398 32.0002 46.9637 32.5481 47.5234L34.049 48.4045C34.1897 48.4332 34.3289 48.469 34.466 48.5117C35.7639 49.0434 37.1861 49.1958 38.5673 48.9513C39.9485 48.7068 41.2319 48.0753 42.2682 47.1304C45.4368 44.344 48.4981 41.4267 51.5952 38.557C51.7665 38.4006 51.9053 38.212 52.0037 38.002C52.1021 37.792 52.1581 37.5647 52.1686 37.3331C52.1791 37.1014 52.1439 36.87 52.0649 36.6519C51.9859 36.4339 51.8648 36.2335 51.7084 36.0623C51.5519 35.8911 51.3633 35.7523 51.1532 35.654C50.9432 35.5556 50.7158 35.4996 50.484 35.4891C50.2523 35.4786 50.0208 35.5138 49.8027 35.5928C49.5845 35.6717 49.3841 35.7928 49.2128 35.9492L45.1271 39.2833C44.996 39.3905 44.8412 39.4857 44.7101 39.581C45.4487 38.3902 46.2587 37.4138 47.0925 36.3779C48.4147 34.6989 49.7489 33.0318 51.0473 31.329C51.2226 31.1202 51.3448 30.872 51.4034 30.6057C51.4621 30.3394 51.4555 30.0629 51.3841 29.7997C51.3127 29.5365 51.1787 29.2945 50.9935 29.0943C50.8084 28.8941 50.5775 28.7416 50.3206 28.6498C49.9868 28.4989 49.6121 28.4638 49.256 28.5501C48.8999 28.6364 48.5828 28.8391 48.3552 29.1261C46.8543 30.8408 45.3613 32.5635 43.8763 34.294L42.5898 35.7944L42.4707 35.6158C44.2456 32.5912 46.0443 29.5548 47.8191 26.566C48.0925 26.1906 48.2358 25.7362 48.2272 25.272C48.2186 24.8077 48.0586 24.359 47.7715 23.994Z" fill="#FF4D1D"/>
<path d="M58.785 11.217C58.6301 11.3003 55.2114 12.3363 55.2114 12.3363" stroke="#FF4D1D" stroke-width="2" stroke-linecap="round" stroke-linejoin="round"/>
<path d="M53.1624 4.59631C53.079 4.75111 50.8872 7.5494 50.8872 7.5494" stroke="white" stroke-width="2" stroke-linecap="round" stroke-linejoin="round"/>
<path d="M45.146 1.19073C45.146 1.35744 45.277 4.91781 45.277 4.91781" stroke="#FF4D1D" stroke-width="2" stroke-linecap="round" stroke-linejoin="round"/>
</g>
<defs>
<clipPath id="clip0_1009_789">
<rect width="60" height="50" fill="white"/>
</clipPath>
</defs>
</svg>
