<?xml version="1.0" encoding="utf-8"?>
<!-- Generator: Adobe Illustrator 25.4.1, SVG Export Plug-In . SVG Version: 6.00 Build 0)  -->
<svg version="1.1" xmlns="http://www.w3.org/2000/svg" xmlns:xlink="http://www.w3.org/1999/xlink" x="0px" y="0px"
	 viewBox="0 0 17 19.4" style="enable-background:new 0 0 17 19.4;" xml:space="preserve">
<style type="text/css">
	.st0{display:none;}
	.st1{fill:#FFFFFF;}
	.st2{display:inline;fill:#FFFFFF;}
</style>
<g id="Bell" class="st0">
</g>
<g id="Picture">
	<path class="st1" d="M31.9,5.4c-0.8,0-1.5,0.7-1.5,1.5s0.7,1.5,1.5,1.5c0.8,0,1.5-0.7,1.5-1.5S32.7,5.4,31.9,5.4z M41.1,2.6H29.1
		c-1.1,0-2,0.9-2,2v10.1c0,1.1,0.9,2,2,2h12.1c1.1,0,2-0.9,2-2V4.7C43.1,3.5,42.3,2.6,41.1,2.6z M41.6,14.5l-4.3-5.8
		c-0.1-0.1-0.3-0.2-0.4-0.2c-0.2,0-0.4,0.1-0.5,0.2l-3.3,4.5l-1.2-1.4c-0.1-0.1-0.3-0.2-0.5-0.2c-0.2,0-0.4,0.1-0.5,0.2l-2.4,2.9
		c0,0,0,0,0,0l0-10c0-0.3,0.2-0.5,0.5-0.5h12.1c0.3,0,0.5,0.2,0.5,0.5L41.6,14.5L41.6,14.5z"/>
</g>
<g id="List" class="st0">
	<path class="st2" d="M2.6,4.2C2.3,4.2,2,4.5,2,4.9v1.3c0,0.3,0.3,0.6,0.6,0.6h1.3c0.3,0,0.6-0.3,0.6-0.6V4.9c0-0.3-0.3-0.6-0.6-0.6
		H2.6z M6.6,4.7C6.1,4.7,5.8,5,5.8,5.5c0,0.5,0.4,0.8,0.8,0.8h7.5C14.6,6.3,15,6,15,5.5c0-0.5-0.4-0.8-0.8-0.8H6.6z M6.6,8.8
		c-0.5,0-0.8,0.4-0.8,0.8s0.4,0.8,0.8,0.8h7.5c0.5,0,0.8-0.4,0.8-0.8s-0.4-0.8-0.8-0.8H6.6z M6.6,13c-0.5,0-0.8,0.4-0.8,0.8
		s0.4,0.8,0.8,0.8h7.5c0.5,0,0.8-0.4,0.8-0.8S14.6,13,14.1,13H6.6z M2,9.1v1.3c0,0.3,0.3,0.6,0.6,0.6h1.3c0.3,0,0.6-0.3,0.6-0.6V9.1
		c0-0.3-0.3-0.6-0.6-0.6H2.6C2.3,8.4,2,8.7,2,9.1z M2.6,12.6c-0.3,0-0.6,0.3-0.6,0.6v1.3c0,0.3,0.3,0.6,0.6,0.6h1.3
		c0.3,0,0.6-0.3,0.6-0.6v-1.3c0-0.3-0.3-0.6-0.6-0.6H2.6z"/>
</g>
<g id="Home">
	<path class="st1" d="M16.5,9.7c0,0.5-0.4,0.9-0.9,0.9h-0.9l0,4.5c0,0.1,0,0.2,0,0.2v0.4c0,0.6-0.5,1.1-1.1,1.1h-0.4
		c0,0-0.1,0-0.1,0c0,0-0.1,0-0.1,0H12h-0.7c-0.6,0-1.1-0.5-1.1-1.1V15v-1.8c0-0.5-0.4-0.9-0.9-0.9H7.6c-0.5,0-0.9,0.4-0.9,0.9V15
		v0.7c0,0.6-0.5,1.1-1.1,1.1H4.9H4c0,0-0.1,0-0.1,0c0,0-0.1,0-0.1,0H3.4c-0.6,0-1.1-0.5-1.1-1.1v-3.1c0,0,0-0.1,0-0.1v-1.9H1.3
		c-0.5,0-0.9-0.4-0.9-0.9c0-0.3,0.1-0.5,0.3-0.7l7.1-6.2c0.2-0.2,0.4-0.2,0.6-0.2s0.4,0.1,0.6,0.2L16.2,9
		C16.4,9.2,16.5,9.4,16.5,9.7z"/>
</g>
</svg>
