<svg xmlns="http://www.w3.org/2000/svg" viewBox="0 0 17 19.4"><defs><style>.cls-1{fill:#606060;}</style></defs><g id="Like"><path class="cls-1" d="M14.64,4.5A3.77,3.77,0,0,0,11.1,3.16,3.7,3.7,0,0,0,8.81,4.4l-.37.45L8.07,4.4A3.69,3.69,0,0,0,4,3.31a4,4,0,0,0-2.69,3c-.07.29-.11.57-.15.85v.65a.44.44,0,0,1,0,.1,5.19,5.19,0,0,0,.86,2.36,9.48,9.48,0,0,0,1.77,2c1.32,1.2,2.67,2.35,4,3.52a.84.84,0,0,0,1.2,0l3.09-2.67a16.1,16.1,0,0,0,2.41-2.47,5.34,5.34,0,0,0,1.06-2.36A4.49,4.49,0,0,0,14.64,4.5ZM14.1,9.78A11.78,11.78,0,0,1,12,12.11c-1.13,1-2.29,2-3.44,3l-.09.08-.89-.77c-1-.91-2.09-1.81-3.12-2.74A9.89,9.89,0,0,1,2.78,9.77a3.91,3.91,0,0,1-.5-3.64A3,3,0,0,1,4.59,4a2.76,2.76,0,0,1,2.77.89,6.07,6.07,0,0,1,.64.8.52.52,0,0,0,.88,0c.06-.07.11-.15.16-.22a3.47,3.47,0,0,1,1.34-1.24,2.85,2.85,0,0,1,2.84.14A3.3,3.3,0,0,1,14.82,7,4.09,4.09,0,0,1,14.1,9.78Z"/></g></svg>