<?xml version="1.0" encoding="utf-8"?>
<!-- Generator: Adobe Illustrator 25.4.1, SVG Export Plug-In . SVG Version: 6.00 Build 0)  -->
<svg version="1.1" xmlns="http://www.w3.org/2000/svg" xmlns:xlink="http://www.w3.org/1999/xlink" x="0px" y="0px"
	 viewBox="0 0 17 19.4" style="enable-background:new 0 0 17 19.4;" xml:space="preserve">
<style type="text/css">
	.st0{display:none;}
	.st1{display:inline;}
	.st2{display:inline;fill:url(#SVGID_1_);}
	.st3{display:inline;fill:#FFFFFF;}
	.st4{fill:#FFFFFF;}
	.st5{display:inline;fill:url(#SVGID_00000046301186052843762870000010087694260436142782_);}
	.st6{display:inline;opacity:0.14;fill:#FFFFFF;}
	.st7{display:inline;fill:#FF4D1D;}
	.st8{display:inline;fill:#8D8D8D;}
	.st9{display:inline;fill:#FF4D1D;stroke:#FFFFFF;stroke-width:0.75;stroke-miterlimit:10;}
	.st10{fill:#FF4D1D;}
	.st11{fill:none;stroke:#000000;stroke-width:2;stroke-miterlimit:10;}
	.st12{fill:none;stroke:#000000;stroke-width:2;stroke-linecap:round;stroke-linejoin:round;stroke-miterlimit:10;}
	.st13{fill:none;stroke:#000000;stroke-linecap:round;stroke-linejoin:round;stroke-miterlimit:10;}
	.st14{fill:none;stroke:#000000;stroke-miterlimit:10;}
	.st15{fill:#12444F;}
</style>
<g id="Capa_3" class="st0">
	<rect x="-0.7" y="-0.6" class="st1" width="18.4" height="20.5"/>
</g>
<g id="Capa_17" class="st0">
</g>
<g id="Wallet_00000047049962564219896520000010368504737562009251_" class="st0">
	<g id="List">
		<path class="st3" d="M2.6,4.2C2.3,4.2,2,4.5,2,4.9v1.3c0,0.3,0.3,0.6,0.6,0.6h1.3c0.3,0,0.6-0.3,0.6-0.6V4.9
			c0-0.3-0.3-0.6-0.6-0.6H2.6V4.2z M6.6,4.7C6.1,4.7,5.8,5,5.8,5.5s0.4,0.8,0.8,0.8h7.5C14.6,6.3,15,6,15,5.5s-0.4-0.8-0.8-0.8H6.6z
			 M6.6,8.8c-0.5,0-0.8,0.4-0.8,0.8s0.4,0.8,0.8,0.8h7.5c0.5,0,0.8-0.4,0.8-0.8s-0.4-0.8-0.8-0.8H6.6z M6.6,13
			c-0.5,0-0.8,0.4-0.8,0.8s0.4,0.8,0.8,0.8h7.5c0.5,0,0.8-0.4,0.8-0.8S14.6,13,14.1,13H6.6z M2,9.1v1.3C2,10.7,2.3,11,2.6,11h1.3
			c0.3,0,0.6-0.3,0.6-0.6V9.1c0-0.3-0.3-0.6-0.6-0.6H2.6C2.3,8.4,2,8.7,2,9.1z M2.6,12.6c-0.3,0-0.6,0.3-0.6,0.6v1.3
			c0,0.3,0.3,0.6,0.6,0.6h1.3c0.3,0,0.6-0.3,0.6-0.6v-1.3c0-0.3-0.3-0.6-0.6-0.6H2.6z"/>
	</g>
	<g id="Home">
		<path class="st3" d="M16.5,9.7c0,0.5-0.4,0.9-0.9,0.9h-0.9v4.5c0,0.1,0,0.2,0,0.2v0.4c0,0.6-0.5,1.1-1.1,1.1h-0.4h-0.1H13h-1h-0.7
			c-0.6,0-1.1-0.5-1.1-1.1V15v-1.8c0-0.5-0.4-0.9-0.9-0.9H7.6c-0.5,0-0.9,0.4-0.9,0.9V15v0.7c0,0.6-0.5,1.1-1.1,1.1H4.9H4H3.9H3.8
			H3.4c-0.6,0-1.1-0.5-1.1-1.1v-3.1v-0.1v-1.9h-1c-0.5,0-0.9-0.4-0.9-0.9c0-0.3,0.1-0.5,0.3-0.7l7.1-6.2C8,2.6,8.2,2.6,8.4,2.6
			S8.8,2.7,9,2.8L16.2,9C16.4,9.2,16.5,9.4,16.5,9.7z"/>
	</g>
	<g id="Messages">
		<path class="st3" d="M14.5,2h-12c-1.1,0-2,0.9-2,2v9c0,1.1,0.9,2,2,2h3v2.6c0,0.3,0.3,0.5,0.6,0.3L10,15h4.5c1.1,0,2-0.9,2-2V4
			C16.5,2.9,15.6,2,14.5,2z M15,13c0,0.3-0.2,0.5-0.5,0.5h-5L7,15.4v-1.9H2.5C2.2,13.5,2,13.3,2,13V4c0-0.3,0.2-0.5,0.5-0.5h12
			C14.8,3.5,15,3.7,15,4V13z"/>
	</g>
	<g id="Folder">
		<path class="st3" d="M14.6,5H9.2L7.7,3.6C7.3,3.2,6.8,3,6.3,3H2.6c-1.1,0-2,0.9-2,2v10c0,1.1,0.9,2,2,2h12c1.1,0,2-0.9,2-2V7
			C16.6,5.9,15.7,5,14.6,5z M15.1,15c0,0.3-0.2,0.5-0.5,0.5h-12c-0.3,0-0.5-0.2-0.5-0.5V5c0-0.3,0.2-0.5,0.5-0.5h3.7
			c0.1,0,0.3,0.1,0.4,0.1l2,1.9h6c0.3,0,0.5,0.2,0.5,0.5v8H15.1z"/>
	</g>
	<g id="Wallet" class="st1">
		<path class="st4" d="M5.2,11.9c0.4,0,0.7,0.3,0.7,0.7s-0.3,0.7-0.7,0.7H3.8c-0.4,0-0.7-0.3-0.7-0.7s0.3-0.7,0.7-0.7H5.2z
			 M10.5,11.9c0.4,0,0.7,0.3,0.7,0.7s-0.3,0.7-0.7,0.7H7.4c-0.4,0-0.7-0.3-0.7-0.7s0.3-0.7,0.7-0.7H10.5z M14.7,3.5
			c1,0,1.8,0.8,1.8,1.8v8.8c0,1-0.8,1.8-1.8,1.8H2.3c-1,0-1.8-0.8-1.8-1.8V5.3c0-1,0.8-1.8,1.8-1.8L14.7,3.5z M14.7,4.8H2.3
			C2,4.8,1.8,5,1.8,5.3v0.9h13.3V5.3C15.1,5,14.9,4.8,14.7,4.8z M15.1,8.8H1.8v5.3c0,0.2,0.2,0.4,0.4,0.4h12.4
			c0.2,0,0.4-0.2,0.4-0.4V8.8H15.1z"/>
	</g>
</g>
<g id="Wishes" class="st0">
	<g class="st1">
		<path class="st4" d="M16,9.7c0,4.3-3.6,7.8-8,7.6c-3.9-0.2-7.1-3.5-7.2-7.4c0-1.5,0.4-2.9,1-4c0.4,2.6,1.2,5,3.2,5.7
			c-1.5-3,5.5-6.7-0.3-8.5c1.1-0.6,2.3-0.9,3.7-0.9c0.9,0,1.8,0.2,2.6,0.5c2.6,0.9,4.1,3.7,3.2,6.3c-0.2,0.7-0.6,1.3-1.2,1.7
			c0.2,0.7,2.5,0.4,2.9-1.8C16,9.1,16,9.4,16,9.7z"/>
	</g>
</g>
<g id="Admin" class="st0">
	<path class="st3" d="M8.4,13.4c-1.9-0.1-3.5-1.7-3.5-3.7c0-0.7,0.2-1.4,0.5-2C5.6,9.1,6,10.3,7,10.6C6.3,9.2,9.7,7.3,6.8,6.4
		C7.4,6.1,8,6,8.6,6C9.1,6,9.5,6,9.9,6.2c1.3,0.5,2,1.8,1.6,3.1c-0.1,0.3-0.3,0.7-0.6,0.8c0.1,0.4,1.2,0.2,1.4-0.9
		c0,0.2,0,0.3,0,0.5C12.4,11.8,10.6,13.6,8.4,13.4z"/>
	<path class="st3" d="M1.4,7.6c0-0.3,0-0.7,0-1c0,0,0-0.1,0-0.1c0-0.7,0.1-1.3,0.1-2c0-0.2,0.1-0.4,0.4-0.5c1.9-0.7,3.8-1.4,5.7-2.1
		c0.3-0.1,0.5-0.2,0.8-0.3c0.1,0,0.1,0,0.2,0c0,0,0.1,0,0.1,0c2.1,0.8,4.3,1.6,6.4,2.3c0.2,0.1,0.3,0.2,0.4,0.5c0,0.3,0.1,0.7,0.1,1
		c0.1,1.3,0.1,2.5-0.1,3.8c-0.1,0.8-0.2,1.6-0.5,2.3c-0.4,1.4-1,2.6-2,3.7c-1,1.1-2.3,1.9-3.8,2.3c-0.4,0.1-0.8,0.2-1.2,0.1
		c-1.4-0.3-2.6-0.9-3.6-1.8c-1.1-1-1.9-2.3-2.4-3.7c-0.4-1.3-0.6-2.6-0.7-4C1.4,8,1.4,7.8,1.4,7.6z M14.7,7C14.7,7,14.7,7,14.7,7
		c0-0.7-0.1-1.3-0.1-2c0-0.1,0-0.1-0.1-0.2c-2-0.7-3.9-1.4-5.9-2.1c0,0-0.1,0-0.2,0C7.6,3,6.7,3.3,5.8,3.7C4.8,4.1,3.7,4.4,2.6,4.8
		c0,0-0.1,0-0.1,0.1C2.5,5.8,2.4,6.6,2.4,7.4c0,1,0.1,2,0.3,3c0.2,1.2,0.6,2.3,1.3,3.3c1,1.5,2.3,2.5,4,2.9c0.2,0,0.4,0.1,0.5,0.1
		c0.4,0,0.8-0.1,1.1-0.3c1.6-0.6,2.7-1.6,3.5-3c0.7-1.1,1-2.3,1.2-3.6C14.7,8.9,14.7,7.9,14.7,7z"/>
</g>
<g id="Icongnit" class="st0">
	<g class="st1">
		<path class="st4" d="M10.6,3.5c0.4,0.1,0.6,0.4,0.7,0.7c0.6,1.5,1.1,2.9,1.7,4.4c0,0,0,0.1,0.1,0.2c-3,0-6,0-9,0
			c0-0.1,0-0.1,0-0.1c0.6-1.5,1.2-3,1.7-4.5c0.1-0.3,0.3-0.5,0.7-0.6c0.1,0,0.2,0,0.3,0C7.3,3.7,7.9,3.9,8.5,4c0,0,0.1,0,0.1,0
			c0.6-0.2,1.2-0.4,1.7-0.6C10.4,3.5,10.5,3.5,10.6,3.5z"/>
		<path class="st4" d="M1,9.9c0.1,0,0.1,0,0.2,0c4.9,0,9.8,0,14.6,0c0.1,0,0.1,0,0.2,0c0,0.4,0,0.7,0,1.1c-5,0-10,0-15,0
			C1,10.6,1,10.2,1,9.9z"/>
		<path class="st4" d="M7.6,14.1c1-0.2,1-0.2,1.8,0c0.1-0.3,0.2-0.5,0.3-0.8c0.6-1.1,1.7-1.7,2.9-1.5c1.3,0.2,2.3,1.1,2.5,2.3
			c0.4,1.7-0.7,3.3-2.4,3.6C11.3,18,9.8,17,9.4,15.4c0-0.1,0-0.2,0-0.2c0-0.2-0.1-0.2-0.2-0.3c-0.5-0.2-1-0.2-1.4,0
			c-0.1,0-0.1,0.1-0.1,0.2c-0.2,1.6-1.6,2.8-3.2,2.6c-1.3-0.1-2.4-1.1-2.7-2.5c-0.3-1.4,0.5-2.9,1.9-3.4c1.6-0.6,3.4,0.3,3.9,2
			C7.5,14,7.6,14,7.6,14.1z M14.4,14.8c0-1.2-0.9-2.1-2.1-2.1c-1.2,0-2.1,1-2.1,2.2c0,1.2,0.9,2.1,2.1,2.1
			C13.5,16.9,14.4,15.9,14.4,14.8z M6.8,14.8c0-1.2-0.9-2.1-2.1-2.2c-1.1,0-2.1,0.9-2.1,2.1c0,1.2,0.9,2.2,2,2.2
			C5.8,16.9,6.8,16,6.8,14.8z"/>
	</g>
</g>
<g id="Log_out" class="st0">
	<g class="st1">
		<path class="st4" d="M11.3,14.4c-0.5,0-0.9,0.4-0.9,0.9c0,0.5,0.4,0.9,0.9,0.9h1.9c1.6,0,2.8-1.3,2.8-2.8V5.9
			c0-1.6-1.3-2.8-2.8-2.8h-1.9c-0.5,0-0.9,0.4-0.9,0.9S10.8,5,11.3,5h1.9c0.5,0,0.9,0.4,0.9,0.9v7.5c0,0.5-0.4,0.9-0.9,0.9H11.3z
			 M1.2,9.2C1.1,9.3,1,9.5,1,9.7c0,0.2,0.1,0.4,0.2,0.5l4.2,4c0.2,0.2,0.5,0.2,0.8,0.1c0.3-0.1,0.4-0.4,0.4-0.6v-2.1h3.8
			c0.5,0,0.9-0.4,0.9-0.9V8.8c0-0.5-0.4-0.9-0.9-0.9H6.6V5.7c0-0.3-0.2-0.5-0.4-0.6C5.9,4.9,5.6,5,5.4,5.2L1.2,9.2z"/>
	</g>
</g>
<g id="Flama" class="st0">
	<radialGradient id="SVGID_1_" cx="8.5" cy="9.7" r="6.8024" gradientUnits="userSpaceOnUse">
		<stop  offset="0" style="stop-color:#FF4D1D"/>
		<stop  offset="0.3461" style="stop-color:#FE4B20"/>
		<stop  offset="0.5819" style="stop-color:#FC4429"/>
		<stop  offset="0.7849" style="stop-color:#F83838"/>
		<stop  offset="0.9683" style="stop-color:#F2274D"/>
		<stop  offset="1" style="stop-color:#F12352"/>
	</radialGradient>
	<path class="st2" d="M8.1,16.5c-3.5-0.2-6.4-3.1-6.4-6.6c0-1.3,0.3-2.5,0.9-3.6c0.3,2.3,1.1,4.5,2.9,5.1c-1.3-2.6,4.9-6-0.3-7.6
		c1-0.5,2.1-0.8,3.3-0.8c0.8,0,1.6,0.1,2.3,0.4c2.3,0.8,3.6,3.3,2.9,5.6c-0.2,0.6-0.5,1.2-1.1,1.5c0.2,0.7,2.2,0.3,2.6-1.6
		c0,0.3,0.1,0.6,0.1,0.8C15.3,13.6,12.1,16.7,8.1,16.5z"/>
</g>
<g id="flama_seguir" class="st0">
	<path class="st3" d="M8.2,4.7C8.8,4.7,9.4,4.8,10,5c1.6,0.6,2.5,2.3,2,3.9c-0.1,0.4-0.3,0.7-0.6,0.8c-0.4,0.2-0.6,0.7-0.4,1.2
		c0.2,0.6,0.8,1,1.5,1c0.2,0,0.3,0,0.5-0.1c-0.8,2-2.7,3.3-4.9,3.3c-0.1,0-0.2,0-0.3,0C5.4,15,3.4,13.1,3,10.6
		c0.6,0.9,1.3,1.5,2.1,1.8c0.1,0,0.2,0.1,0.3,0.1c0.3,0,0.6-0.1,0.8-0.3c0.3-0.3,0.3-0.7,0.1-1.1c-0.2-0.5,0.3-1.3,0.8-2.1
		c0.6-1,1.3-2.2,0.9-3.4C7.9,5.2,7.8,4.9,7.6,4.7C7.8,4.7,8,4.7,8.2,4.7 M8.2,3.7c-1.1,0-2.1,0.3-3,0.8C10,6,4.3,9,5.5,11.4
		c-1.6-0.5-2.3-2.6-2.6-4.7C2.3,7.7,2,8.9,2,10.1c0.1,3.2,2.7,5.9,5.9,6.1c0.1,0,0.2,0,0.3,0c3.4,0,6.2-2.8,6.2-6.2
		c0-0.3,0-0.5-0.1-0.8c-0.2,1.2-1.2,1.7-1.8,1.7c-0.3,0-0.5-0.1-0.6-0.3c0.5-0.3,0.8-0.8,1-1.4c0.7-2.1-0.6-4.4-2.6-5.1
		C9.7,3.8,9,3.7,8.2,3.7L8.2,3.7z"/>
</g>
<g id="flama_seguir_activa" class="st0">
	<path class="st7" d="M8.2,4.7C8.8,4.7,9.4,4.8,10,5c1.6,0.6,2.5,2.3,2,3.9c-0.1,0.4-0.3,0.7-0.5,0.8c-0.4,0.2-0.6,0.7-0.4,1.2
		c0.2,0.6,0.8,1,1.5,1c0.2,0,0.3,0,0.5-0.1c-0.8,2-2.7,3.3-4.9,3.3c-0.1,0-0.2,0-0.3,0C5.4,15,3.4,13.1,3,10.6
		c0.5,0.9,1.3,1.5,2.1,1.8c0.1,0,0.2,0.1,0.3,0.1c0.3,0,0.6-0.1,0.8-0.3c0.3-0.3,0.3-0.7,0.1-1.1c-0.2-0.5,0.3-1.3,0.8-2.1
		c0.6-1,1.3-2.2,0.9-3.4C7.9,5.2,7.8,5,7.6,4.8C7.8,4.7,8,4.7,8.2,4.7 M8.2,3.7c-1.1,0-2.1,0.3-3,0.8C10,6,4.3,9,5.5,11.4
		c-1.6-0.5-2.3-2.6-2.6-4.7C2.3,7.8,2,8.9,2,10.1c0.1,3.2,2.7,5.9,5.9,6.1c0.1,0,0.2,0,0.3,0c3.4,0,6.2-2.8,6.2-6.2
		c0-0.3,0-0.5-0.1-0.8c-0.2,1.2-1.2,1.7-1.8,1.7c-0.3,0-0.5-0.1-0.6-0.3c0.5-0.3,0.8-0.8,1-1.4c0.7-2.1-0.6-4.4-2.6-5.1
		C9.7,3.9,9,3.7,8.2,3.7L8.2,3.7z"/>
</g>
<g id="Coment" class="st0">
	<path class="st8" d="M8.5,2.6C4,2.6,0.4,5.6,0.4,9.2c0,1.5,0.6,2.9,1.7,4c-0.5,1.3-1.5,2.3-1.5,2.3c-0.2,0.2-0.3,0.5-0.1,0.8
		c0.1,0.3,0.4,0.5,0.7,0.5c1.9,0,3.5-0.8,4.4-1.5c0.9,0.3,1.9,0.5,2.9,0.5c4.5,0,8.1-2.9,8.1-6.6S13,2.6,8.5,2.6z M8.5,14.3
		c-0.8,0-1.7-0.1-2.5-0.4l-0.7-0.2l-0.6,0.4c-0.5,0.3-1.1,0.7-1.8,0.9c0.2-0.4,0.5-0.8,0.6-1.3l0.3-0.9l-0.7-0.7
		c-0.6-0.6-1.3-1.6-1.3-3c0-2.8,3-5.1,6.6-5.1s6.6,2.3,6.6,5.1S12.1,14.3,8.5,14.3z"/>
</g>
<g id="Edith" class="st0">
	<path class="st3" d="M13.5,4.7L13.8,5c0.2,0.2,0.2,0.6,0,0.8l-0.7,0.7l-1.1-1.1l0.7-0.7C12.9,4.5,13.3,4.5,13.5,4.7L13.5,4.7z
		 M7.7,9.6l3.3-3.3l1.1,1.1l-3.3,3.3c-0.1,0.1-0.2,0.1-0.3,0.2l-1.5,0.4l0.4-1.5C7.6,9.8,7.7,9.7,7.7,9.6L7.7,9.6z M11.8,3.9
		L6.9,8.8C6.7,9,6.5,9.3,6.4,9.6l-0.7,2.5c-0.1,0.2,0,0.4,0.2,0.6s0.4,0.2,0.6,0.2L9,12.1c0.3-0.1,0.6-0.2,0.8-0.5l4.9-4.9
		c0.7-0.7,0.7-1.8,0-2.5l-0.3-0.3C13.6,3.2,12.5,3.2,11.8,3.9z M4.7,4.9c-1.2,0-2.2,1-2.2,2.2v6.8c0,1.2,1,2.2,2.2,2.2h6.8
		c1.2,0,2.2-1,2.2-2.2V11c0-0.3-0.3-0.6-0.6-0.6c-0.3,0-0.6,0.3-0.6,0.6v2.8c0,0.5-0.4,1-1,1H4.7c-0.5,0-1-0.4-1-1V7.1
		c0-0.5,0.4-1,1-1h2.8c0.3,0,0.6-0.3,0.6-0.6c0-0.3-0.3-0.6-0.6-0.6H4.7z"/>
</g>
<g id="New_Product" class="st0">
	<g class="st1">
		<path class="st4" d="M4.2,5.4c0.1-2.6,2.1-4.2,4.1-4.3c2.1-0.1,4.4,1.6,4.4,4.3c0.3,0,0.6,0,0.9,0c0.3,0,0.7,0,1,0.1
			c0.9,0.1,1.5,0.7,1.6,1.6c0.1,0.5,0.1,1.1,0.1,1.6c0,1.8,0,3.7,0,5.5c0,0.5-0.1,1-0.2,1.5c-0.3,1.3-1.2,2.2-2.5,2.3
			c-0.8,0.1-1.6,0.1-2.5,0.2c-2.1,0-4.2,0-6.3,0c-0.5,0-1-0.1-1.5-0.2c-1.4-0.3-2.3-1.1-2.5-2.6c-0.1-0.7-0.1-1.5-0.1-2.3
			c0-1.7,0-3.5,0-5.2c0-0.3,0-0.6,0.1-1c0.2-0.9,0.7-1.4,1.6-1.5c0.5-0.1,1-0.1,1.6-0.1C4,5.4,4.1,5.4,4.2,5.4z M8.5,6.8
			C8.5,6.8,8.5,6.8,8.5,6.8c-1.9,0-3.7,0-5.6,0C2.2,6.8,2.1,7,2.1,7.7c0,1.4,0,2.8,0,4.3c0,1,0,2,0.1,3.1c0.1,1.1,0.6,1.6,1.7,1.8
			c0.4,0,0.8,0.1,1.2,0.1c2.2,0,4.4,0,6.5,0c0.7,0,1.3-0.1,2-0.2c0.6-0.1,1-0.5,1.2-1.1c0.1-0.4,0.2-0.9,0.2-1.4c0-2.1,0-4.2,0-6.3
			c0-0.9-0.1-1-1-1C12.1,6.8,10.3,6.8,8.5,6.8z M11.4,5.4c0-1.1-0.5-1.9-1.4-2.4C9,2.4,8,2.4,6.9,3C6.1,3.6,5.6,4.4,5.6,5.4
			C7.5,5.4,9.4,5.4,11.4,5.4z"/>
		<path class="st4" d="M7.8,12.8c-0.4,0-0.9,0-1.3,0c-0.3,0-0.5-0.1-0.7-0.4c-0.1-0.2-0.1-0.5,0.1-0.7c0.2-0.2,0.4-0.3,0.6-0.3
			c0.4,0,0.8,0,1.2,0c0-0.5,0-0.9,0-1.3c0-0.4,0.3-0.7,0.7-0.7c0.4,0,0.7,0.3,0.7,0.7c0,0.4,0,0.9,0,1.4c0.4,0,0.8,0,1.1,0
			c0.1,0,0.2,0,0.3,0c0.4,0,0.7,0.3,0.6,0.7c0,0.4-0.3,0.6-0.7,0.6c-0.4,0-0.7,0-1.1,0c-0.1,0-0.2,0-0.3,0c0,0.3,0,0.5,0,0.7
			c0,0.2,0,0.4,0,0.6c0,0.4-0.3,0.7-0.7,0.7c-0.4,0-0.7-0.3-0.7-0.7c0-0.4,0-0.8,0-1.2C7.8,12.9,7.8,12.9,7.8,12.8z"/>
	</g>
</g>
<g id="Check" class="st0">
	<circle class="st9" cx="10.7" cy="13.8" r="2.6"/>
	<path class="st3" d="M10.6,14.7c-0.1,0.1-0.3,0.1-0.4,0l-0.6-0.6c-0.1-0.1-0.1-0.3,0-0.4s0.3-0.1,0.4,0l0.4,0.4l1.1-1.1
		c0.1-0.1,0.3-0.1,0.4,0c0.1,0.1,0.1,0.3,0,0.4L10.6,14.7z"/>
</g>
<g id="Clock" class="st0">
	<path class="st3" d="M14.8,9.7c0,3.5-2.8,6.3-6.3,6.3s-6.3-2.8-6.3-6.3S5,3.4,8.5,3.4S14.8,6.2,14.8,9.7z M0.8,9.7
		c0,4.3,3.5,7.7,7.7,7.7s7.7-3.5,7.7-7.7S12.8,2,8.5,2S0.8,5.4,0.8,9.7z M7.8,5.6v4.1c0,0.2,0.1,0.5,0.3,0.6l2.9,1.9
		c0.3,0.2,0.8,0.1,1-0.2c0.2-0.3,0.1-0.8-0.2-1L9.2,9.3V5.6c0-0.4-0.3-0.7-0.7-0.7S7.8,5.2,7.8,5.6z"/>
</g>
<g id="Smark" class="st0">
	<path class="st3" d="M15.9,4.6c0.6-0.6,0.6-1.6,0-2.2c-0.6-0.6-1.6-0.6-2.2,0L8.5,7.6L3.3,2.4c-0.6-0.6-1.6-0.6-2.2,0
		S0.4,4,1.1,4.6l5.2,5.2L1.1,15c-0.6,0.6-0.6,1.6,0,2.2c0.6,0.6,1.6,0.6,2.2,0L8.5,12l5.2,5.2c0.6,0.6,1.6,0.6,2.2,0s0.6-1.6,0-2.2
		l-5.2-5.2L15.9,4.6z"/>
</g>
<g id="Insatisfecho" class="st0">
	<g class="st1">
		<path class="st4" d="M15.2,9.7c0-3.7-3-6.7-6.7-6.7S1.8,6,1.8,9.7s3,6.7,6.7,6.7S15.2,13.4,15.2,9.7z M0.2,9.7
			c0-4.6,3.7-8.3,8.3-8.3s8.3,3.7,8.3,8.3S13.1,18,8.5,18S0.2,14.3,0.2,9.7z M6.1,13.8c-0.4,0.2-0.9-0.1-0.7-0.5
			c0.5-1.2,1.7-2,3.1-2s2.5,0.8,3.1,2c0.2,0.4-0.3,0.7-0.7,0.5c-0.7-0.3-1.5-0.5-2.4-0.5S6.8,13.5,6.1,13.8L6.1,13.8z M4.9,8.2
			c0-0.6,0.5-1,1-1s1,0.5,1,1s-0.5,1-1,1S4.9,8.7,4.9,8.2z M11.1,7.1c0.6,0,1,0.5,1,1s-0.5,1-1,1s-1-0.5-1-1S10.5,7.1,11.1,7.1z"/>
	</g>
</g>
<g id="Menú_Hamburuesa" class="st0">
	<path class="st3" d="M0.5,4c0-0.6,0.5-1.1,1.1-1.1h13.7c0.6,0,1.1,0.5,1.1,1.1S16,5.1,15.4,5.1H1.6C1,5.1,0.5,4.6,0.5,4z M0.5,9.7
		c0-0.6,0.5-1.1,1.1-1.1h13.7c0.6,0,1.1,0.5,1.1,1.1s-0.5,1.1-1.1,1.1H1.6C1,10.8,0.5,10.3,0.5,9.7z M16.5,15.4
		c0,0.6-0.5,1.1-1.1,1.1H1.6c-0.6,0-1.1-0.5-1.1-1.1c0-0.6,0.5-1.1,1.1-1.1h13.7C16,14.3,16.5,14.8,16.5,15.4z"/>
</g>
<g id="Bell_00000116938288963889505180000012244101613571158428_" class="st0">
	<path class="st7" d="M8.5,1.7c-0.6,0-1,0.4-1,1v0.6c-2.3,0.5-4,2.5-4,4.9v0.6c0,1.5-0.5,2.9-1.5,4l-0.2,0.3
		c-0.3,0.3-0.3,0.7-0.2,1.1c0.2,0.4,0.5,0.6,0.9,0.6h12.1c0.4,0,0.8-0.2,0.9-0.6c0.2-0.4,0.1-0.8-0.2-1.1l-0.2-0.3
		c-1-1.1-1.5-2.5-1.5-4V8.2c0-2.4-1.7-4.5-4-4.9V2.7C9.5,2.1,9.1,1.7,8.5,1.7z M9.9,17.2c0.4-0.4,0.6-0.9,0.6-1.4h-2h-2
		c0,0.5,0.2,1,0.6,1.4c0.4,0.4,0.9,0.6,1.4,0.6S9.5,17.5,9.9,17.2z"/>
</g>
<g id="Logo" class="st0">
</g>
<g id="Capa_21" class="st0">
	<path class="st7" d="M8.4,4.8c0.6,0,1.2,0.1,1.8,0.3c1.6,0.6,2.5,2.3,2,3.9c-0.1,0.4-0.3,0.7-0.5,0.8c-0.4,0.2-0.6,0.7-0.4,1.2
		c0.2,0.6,0.8,1,1.5,1c0.2,0,0.3,0,0.5-0.1c-0.8,2-2.7,3.3-4.9,3.3c-0.1,0-0.2,0-0.3,0c-2.5-0.1-4.6-2.1-4.9-4.5
		c0.5,0.9,1.3,1.5,2.1,1.8c0.1,0,0.2,0.1,0.3,0.1c0.3,0,0.6-0.1,0.8-0.3c0.3-0.3,0.3-0.7,0.1-1.1c-0.2-0.5,0.3-1.3,0.8-2.1
		c0.6-1,1.3-2.2,0.9-3.4C8.1,5.2,8,5,7.8,4.8C8,4.8,8.2,4.8,8.4,4.8 M8.4,3.8c-1.1,0-2.1,0.3-3,0.8c4.8,1.5-0.9,4.5,0.3,7
		c-1.6-0.5-2.3-2.6-2.6-4.7c-0.6,1-0.9,2.1-0.9,3.3c0.1,3.2,2.7,5.9,5.9,6.1c0.1,0,0.2,0,0.3,0c3.4,0,6.2-2.8,6.2-6.2
		c0-0.3,0-0.5-0.1-0.8c-0.2,1.2-1.2,1.7-1.8,1.7c-0.3,0-0.5-0.1-0.6-0.3c0.5-0.3,0.8-0.8,1-1.4c0.7-2.1-0.6-4.4-2.6-5.1
		C9.9,3.9,9.2,3.8,8.4,3.8L8.4,3.8z"/>
	<circle class="st9" cx="8.2" cy="15.7" r="1.7"/>
</g>
<g id="videocam" class="st0">
	<g class="st1">
		<path class="st4" d="M0.9,6.3c0-0.9,0.8-1.7,1.7-1.7h6.8c0.9,0,1.7,0.8,1.7,1.7v6.8c0,0.9-0.8,1.7-1.7,1.7H2.6
			c-0.9,0-1.7-0.8-1.7-1.7V6.3z M15.7,5.6c0.3,0.1,0.4,0.4,0.4,0.7v6.8c0,0.3-0.2,0.6-0.4,0.7s-0.6,0.1-0.9,0l-2.5-1.7l-0.4-0.3
			v-0.5V8V7.6l0.4-0.3l2.5-1.7C15,5.4,15.4,5.4,15.7,5.6L15.7,5.6z"/>
	</g>
</g>
<g id="Cam" class="st0">
	<path class="st3" d="M5.3,4L5,4.9H2.8c-1,0-1.9,0.9-1.9,1.9v7.6c0,1,0.9,1.9,1.9,1.9h11.4c1,0,1.9-0.9,1.9-1.9V6.8
		c0-1-0.9-1.9-1.9-1.9H12L11.7,4c-0.2-0.6-0.7-1-1.4-1H6.7C6.1,3,5.5,3.4,5.3,4z M8.5,7.8c1.6,0,2.9,1.3,2.9,2.9s-1.3,2.9-2.9,2.9
		s-2.9-1.3-2.9-2.9S6.9,7.8,8.5,7.8z"/>
</g>
<g id="MarketPlace">
</g>
<g id="Capa_25">
</g>
<g id="Like">
	<path class="st15" d="M14.6,4.5c-0.9-1.1-2.1-1.5-3.5-1.3c-0.9,0.1-1.7,0.6-2.3,1.2C8.7,4.5,8.6,4.7,8.4,4.9
		C8.3,4.7,8.2,4.5,8.1,4.4C6.9,3.2,5.6,2.8,4,3.3c-1.5,0.5-2.3,1.5-2.7,3C1.3,6.6,1.2,6.9,1.2,7.1v0.7c0,0,0,0.1,0,0.1
		c0.1,0.9,0.4,1.6,0.9,2.4c0.5,0.8,1.1,1.4,1.8,2c1.3,1.2,2.7,2.4,4,3.5c0.4,0.3,0.8,0.3,1.2,0c1-0.9,2.1-1.8,3.1-2.7
		c0.9-0.8,1.7-1.5,2.4-2.5c0.5-0.7,0.9-1.5,1.1-2.4C15.8,6.9,15.6,5.6,14.6,4.5z M14.1,9.8c-0.6,0.9-1.3,1.6-2.1,2.3
		c-1.1,1-2.3,2-3.4,3c0,0-0.1,0-0.1,0.1c-0.3-0.2-0.6-0.5-0.9-0.8c-1-0.9-2.1-1.8-3.1-2.7c-0.6-0.6-1.2-1.2-1.6-1.9
		C2,8.6,1.8,7.4,2.3,6.1C2.7,5,3.4,4.3,4.6,4c1.1-0.2,2,0.1,2.8,0.9C7.6,5.2,7.8,5.4,8,5.7C8.2,6,8.7,6,8.9,5.7C8.9,5.6,9,5.6,9,5.5
		c0.4-0.5,0.8-1,1.3-1.2c1-0.5,1.9-0.4,2.8,0.1c1,0.6,1.5,1.5,1.6,2.6C14.9,8,14.7,8.9,14.1,9.8z"/>
</g>
</svg>
