<svg xmlns="http://www.w3.org/2000/svg" viewBox="0 0 17 19.4"><defs><style>.cls-1{fill:#fff;}.cls-2{fill:#545454;stroke:#fff;stroke-miterlimit:10;stroke-width:0.75px;}</style></defs><g id="flama_seguir" data-name="flama seguir"><path class="cls-1" d="M8.22,4.69A5.13,5.13,0,0,1,10,5a3.2,3.2,0,0,1,2,3.88,1.48,1.48,0,0,1-.56.84,1,1,0,0,0-.42,1.17,1.51,1.51,0,0,0,1.51,1,2.31,2.31,0,0,0,.52-.06,5.22,5.22,0,0,1-4.87,3.35H7.94A5.25,5.25,0,0,1,3,10.59a4,4,0,0,0,2.14,1.79,1.12,1.12,0,0,0,.31,0A1,1,0,0,0,6.38,11c-.25-.49.26-1.33.75-2.14.63-1,1.34-2.22.88-3.43a2.18,2.18,0,0,0-.4-.69,6.08,6.08,0,0,1,.61,0m0-1a6.09,6.09,0,0,0-3,.77c4.79,1.52-1,4.55.26,7-1.61-.54-2.33-2.57-2.63-4.66A6.13,6.13,0,0,0,2,10.06a6.27,6.27,0,0,0,5.9,6.07h.33a6.22,6.22,0,0,0,6.22-6.23,4.9,4.9,0,0,0,0-.77,2,2,0,0,1-1.82,1.71c-.28,0-.5-.09-.56-.28a2.4,2.4,0,0,0,1-1.39,4.18,4.18,0,0,0-2.65-5.12,6.22,6.22,0,0,0-2.12-.37Z"/></g><g id="Check"><circle class="cls-2" cx="10.67" cy="13.79" r="2.64"/><path class="cls-1" d="M10.6,14.72a.27.27,0,0,1-.39,0l-.64-.64a.28.28,0,0,1,.39-.39l.44.44,1.09-1.08a.27.27,0,0,1,.39,0,.28.28,0,0,1,0,.4Z"/></g></svg>