<svg xmlns="http://www.w3.org/2000/svg" viewBox="0 0 17 19.4"><defs><style>.cls-1,.cls-2{fill:#ff4d1d;}.cls-2{stroke:#fff;stroke-miterlimit:10;stroke-width:0.75px;}.cls-3{fill:#fff;}</style></defs><g id="flama_seguir_activa" data-name="flama seguir activa"><path class="cls-1" d="M8.21,4.72A5.13,5.13,0,0,1,10,5,3.17,3.17,0,0,1,12,8.9a1.46,1.46,0,0,1-.54.84,1,1,0,0,0-.42,1.16,1.48,1.48,0,0,0,1.49,1,2.39,2.39,0,0,0,.53-.06,5.21,5.21,0,0,1-4.86,3.33H7.93A5.23,5.23,0,0,1,3,10.61a4,4,0,0,0,2.12,1.78.89.89,0,0,0,.32,0A1,1,0,0,0,6.37,11c-.24-.49.26-1.33.75-2.14.63-1,1.34-2.22.89-3.42a2.42,2.42,0,0,0-.41-.69,6.08,6.08,0,0,1,.61,0m0-1a6.19,6.19,0,0,0-3,.77C10,6,4.27,9,5.48,11.44c-1.61-.53-2.33-2.56-2.63-4.65a6.21,6.21,0,0,0,5,9.34h.33a6.21,6.21,0,0,0,6.21-6.21,6.49,6.49,0,0,0-.05-.77,2,2,0,0,1-1.83,1.71c-.27,0-.49-.1-.55-.28A2.48,2.48,0,0,0,13,9.2a4.17,4.17,0,0,0-2.64-5.11,6.22,6.22,0,0,0-2.12-.37Z"/></g><g id="Check"><circle class="cls-2" cx="10.67" cy="13.79" r="2.64"/><path class="cls-3" d="M10.6,14.72a.27.27,0,0,1-.39,0l-.64-.64a.28.28,0,0,1,.39-.39l.44.44,1.09-1.08a.27.27,0,0,1,.39,0,.28.28,0,0,1,0,.4Z"/></g></svg>