<?xml version="1.0" encoding="utf-8"?>
<!-- Generator: Adobe Illustrator 25.4.1, SVG Export Plug-In . SVG Version: 6.00 Build 0)  -->
<svg version="1.1" xmlns="http://www.w3.org/2000/svg" xmlns:xlink="http://www.w3.org/1999/xlink" x="0px" y="0px"
	 viewBox="0 0 500 500" style="enable-background:new 0 0 500 500;" xml:space="preserve">
<style type="text/css">
	.st0{fill:none;stroke:#000000;stroke-width:6;stroke-linecap:round;stroke-linejoin:round;stroke-miterlimit:10;}
	.st1{fill:#8D8D8D;}
	.st2{fill:#FF4D1D;}
	.st3{display:none;}
	.st4{display:inline;}
</style>
<g id="Capa_1">
	<path class="st1" d="M473.7,60.1c-0.1-0.1-0.2-0.3-0.2-0.4c-0.1-0.1-0.1-0.3-0.2-0.4c-2.7-4.7-7.7-7.7-13.1-7.7L39.7,51
		c0,0,0,0,0,0c-6.3,0-11.9,3.9-14.1,9.8c-2.2,5.9-0.5,12.6,4.3,16.7l155.6,133.6l39.4,225.4c1.1,6.2,5.9,11.1,12.1,12.2
		c0.9,0.2,1.8,0.3,2.8,0.3c5.2,0,10.2-2.7,12.9-7.3L471.4,77.2C475.6,72.7,476.7,65.9,473.7,60.1z M399.5,81.7L201.2,184.9
		L80.5,81.2L399.5,81.7z M247.6,391.5l-31.5-180.3l203.2-105.8L247.6,391.5z"/>
</g>
<g id="Capa_2" class="st3">
	<g class="st4">
		<path d="M425.6,469c-3.5,0-7-1.2-9.8-3.6L250,326.1L84.2,465.4c-4.5,3.8-10.9,4.7-16.3,2.2c-5.4-2.5-8.8-7.9-8.8-13.8V74.8
			c0-24.2,19.6-43.8,43.8-43.8h294.2c24.2,0,43.8,19.6,43.8,43.8v378.9c0,5.9-3.4,11.3-8.8,13.8C430,468.5,427.8,469,425.6,469z
			 M250,290.9c3.5,0,7,1.2,9.8,3.6L410.4,421V74.8c0-7.3-5.9-13.3-13.3-13.3H102.9c-7.3,0-13.3,5.9-13.3,13.3V421l150.5-126.4
			C243,292.1,246.5,290.9,250,290.9z"/>
	</g>
</g>
<g id="Capa_3" class="st3">
	<g class="st4">
		<path d="M424.7,257.5H78.3c-5.5,0-10-4.5-10-10c0-5.5,4.5-10,10-10h346.4c5.5,0,10,4.5,10,10C434.7,253,430.2,257.5,424.7,257.5z"
			/>
	</g>
	<g class="st4">
		<path d="M422.3,255.1c-2.6,0-5.1-1-7.1-2.9L301.1,138c-3.9-3.9-3.9-10.2,0-14.1c3.9-3.9,10.2-3.9,14.1,0l114.2,114.2
			c3.9,3.9,3.9,10.2,0,14.1C427.5,254.1,424.9,255.1,422.3,255.1z"/>
	</g>
	<g class="st4">
		<path d="M308.2,374c-2.6,0-5.1-1-7.1-2.9c-3.9-3.9-3.9-10.2,0-14.1l114.2-114.2c3.9-3.9,10.2-3.9,14.1,0c3.9,3.9,3.9,10.2,0,14.1
			L315.2,371.1C313.3,373,310.7,374,308.2,374z"/>
	</g>
</g>
</svg>
