<?xml version="1.0" encoding="utf-8"?>
<!-- Generator: Adobe Illustrator 25.4.1, SVG Export Plug-In . SVG Version: 6.00 Build 0)  -->
<svg version="1.1" xmlns="http://www.w3.org/2000/svg" xmlns:xlink="http://www.w3.org/1999/xlink" x="0px" y="0px"
	 viewBox="0 0 17 19.4" style="enable-background:new 0 0 17 19.4;" xml:space="preserve">
<style type="text/css">
	.st0{display:none;}
	.st1{display:inline;fill:#FFFFFF;}
	.st2{display:inline;}
	.st3{fill:#FFFFFF;}
</style>
<g id="Wallet_00000047049962564219896520000010368504737562009251_" class="st0">
	<g id="Bell">
	</g>
	<g id="Picture">
		<path class="st1" d="M31.9,5.4c-0.8,0-1.5,0.7-1.5,1.5s0.7,1.5,1.5,1.5c0.8,0,1.5-0.7,1.5-1.5S32.7,5.4,31.9,5.4z M41.1,2.6h-12
			c-1.1,0-2,0.9-2,2v10.1c0,1.1,0.9,2,2,2h12.1c1.1,0,2-0.9,2-2v-10C43.1,3.5,42.3,2.6,41.1,2.6z M41.6,14.5l-4.3-5.8
			c-0.1-0.1-0.3-0.2-0.4-0.2c-0.2,0-0.4,0.1-0.5,0.2l-3.3,4.5l-1.2-1.4c-0.1-0.1-0.3-0.2-0.5-0.2s-0.4,0.1-0.5,0.2l-2.4,2.9l0,0v-10
			c0-0.3,0.2-0.5,0.5-0.5h12.1c0.3,0,0.5,0.2,0.5,0.5V14.5L41.6,14.5z"/>
	</g>
	<g id="List">
		<path class="st1" d="M2.6,4.2C2.3,4.2,2,4.5,2,4.9v1.3c0,0.3,0.3,0.6,0.6,0.6h1.3c0.3,0,0.6-0.3,0.6-0.6V4.9
			c0-0.3-0.3-0.6-0.6-0.6H2.6V4.2z M6.6,4.7C6.1,4.7,5.8,5,5.8,5.5s0.4,0.8,0.8,0.8h7.5C14.6,6.3,15,6,15,5.5s-0.4-0.8-0.8-0.8H6.6z
			 M6.6,8.8c-0.5,0-0.8,0.4-0.8,0.8s0.4,0.8,0.8,0.8h7.5c0.5,0,0.8-0.4,0.8-0.8s-0.4-0.8-0.8-0.8H6.6z M6.6,13
			c-0.5,0-0.8,0.4-0.8,0.8s0.4,0.8,0.8,0.8h7.5c0.5,0,0.8-0.4,0.8-0.8S14.6,13,14.1,13H6.6z M2,9.1v1.3C2,10.7,2.3,11,2.6,11h1.3
			c0.3,0,0.6-0.3,0.6-0.6V9.1c0-0.3-0.3-0.6-0.6-0.6H2.6C2.3,8.4,2,8.7,2,9.1z M2.6,12.6c-0.3,0-0.6,0.3-0.6,0.6v1.3
			c0,0.3,0.3,0.6,0.6,0.6h1.3c0.3,0,0.6-0.3,0.6-0.6v-1.3c0-0.3-0.3-0.6-0.6-0.6H2.6z"/>
	</g>
	<g id="Home">
		<path class="st1" d="M16.5,9.7c0,0.5-0.4,0.9-0.9,0.9h-0.9v4.5c0,0.1,0,0.2,0,0.2v0.4c0,0.6-0.5,1.1-1.1,1.1h-0.4h-0.1H13h-1h-0.7
			c-0.6,0-1.1-0.5-1.1-1.1V15v-1.8c0-0.5-0.4-0.9-0.9-0.9H7.6c-0.5,0-0.9,0.4-0.9,0.9V15v0.7c0,0.6-0.5,1.1-1.1,1.1H4.9H4H3.9H3.8
			H3.4c-0.6,0-1.1-0.5-1.1-1.1v-3.1v-0.1v-1.9h-1c-0.5,0-0.9-0.4-0.9-0.9c0-0.3,0.1-0.5,0.3-0.7l7.1-6.2C8,2.6,8.2,2.6,8.4,2.6
			S8.8,2.7,9,2.8L16.2,9C16.4,9.2,16.5,9.4,16.5,9.7z"/>
	</g>
	<g id="Messages">
		<path class="st1" d="M14.5,2h-12c-1.1,0-2,0.9-2,2v9c0,1.1,0.9,2,2,2h3v2.6c0,0.3,0.3,0.5,0.6,0.3L10,15h4.5c1.1,0,2-0.9,2-2V4
			C16.5,2.9,15.6,2,14.5,2z M15,13c0,0.3-0.2,0.5-0.5,0.5h-5L7,15.4v-1.9H2.5C2.2,13.5,2,13.3,2,13V4c0-0.3,0.2-0.5,0.5-0.5h12
			C14.8,3.5,15,3.7,15,4V13z"/>
	</g>
	<g id="Folder">
		<path class="st1" d="M14.6,5H9.2L7.7,3.6C7.3,3.2,6.8,3,6.3,3H2.6c-1.1,0-2,0.9-2,2v10c0,1.1,0.9,2,2,2h12c1.1,0,2-0.9,2-2V7
			C16.6,5.9,15.7,5,14.6,5z M15.1,15c0,0.3-0.2,0.5-0.5,0.5h-12c-0.3,0-0.5-0.2-0.5-0.5V5c0-0.3,0.2-0.5,0.5-0.5h3.7
			c0.1,0,0.3,0.1,0.4,0.1l2,1.9h6c0.3,0,0.5,0.2,0.5,0.5v8H15.1z"/>
	</g>
	<g id="Wallet" class="st2">
		<path class="st3" d="M5.2,11.9c0.4,0,0.7,0.3,0.7,0.7s-0.3,0.7-0.7,0.7H3.8c-0.4,0-0.7-0.3-0.7-0.7s0.3-0.7,0.7-0.7H5.2z
			 M10.5,11.9c0.4,0,0.7,0.3,0.7,0.7s-0.3,0.7-0.7,0.7H7.4c-0.4,0-0.7-0.3-0.7-0.7s0.3-0.7,0.7-0.7H10.5z M14.7,3.5
			c1,0,1.8,0.8,1.8,1.8v8.8c0,1-0.8,1.8-1.8,1.8H2.3c-1,0-1.8-0.8-1.8-1.8V5.3c0-1,0.8-1.8,1.8-1.8L14.7,3.5z M14.7,4.8H2.3
			C2,4.8,1.8,5,1.8,5.3v0.9h13.3V5.3C15.1,5,14.9,4.8,14.7,4.8z M15.1,8.8H1.8v5.3c0,0.2,0.2,0.4,0.4,0.4h12.4
			c0.2,0,0.4-0.2,0.4-0.4V8.8H15.1z"/>
	</g>
</g>
<g id="Wishes">
	<path d="M6.7,12.9L6.7,12.9L6.7,12.9C6.7,12.9,6.7,12.9,6.7,12.9z"/>
	<g>
		<path class="st3" d="M16.1,9.7c0,4.3-3.6,7.8-8,7.6C4.2,17.1,1,13.8,0.9,9.9c0-1.5,0.4-2.9,1-4c0.4,2.6,1.2,5,3.2,5.7
			c-1.5-3,5.5-6.7-0.3-8.5c1.1-0.6,2.3-0.9,3.7-0.9c0.9,0,1.8,0.2,2.6,0.5c2.6,0.9,4.1,3.7,3.2,6.3c-0.2,0.7-0.6,1.3-1.2,1.7
			c0.2,0.7,2.5,0.4,2.9-1.8C16.1,9.1,16.1,9.4,16.1,9.7z"/>
	</g>
</g>
</svg>
