<?xml version="1.0" encoding="utf-8"?>
<!-- Generator: Adobe Illustrator 25.4.1, SVG Export Plug-In . SVG Version: 6.00 Build 0)  -->
<svg version="1.1" xmlns="http://www.w3.org/2000/svg" xmlns:xlink="http://www.w3.org/1999/xlink" x="0px" y="0px"
	 viewBox="0 0 17 19.4" style="enable-background:new 0 0 17 19.4;" xml:space="preserve">
<style type="text/css">
	.st0{display:none;}
	.st1{display:inline;}
	.st2{display:inline;fill:#FFFFFF;}
	.st3{fill:#FFFFFF;}
	.st4{display:inline;fill:url(#SVGID_1_);}
	.st5{display:inline;fill:#8D8D8D;}
</style>
<g id="Capa_3" class="st0">
	<rect x="-8.1" y="-4.1" class="st1" width="32.8" height="27.9"/>
</g>
<g id="Wallet_00000047049962564219896520000010368504737562009251_" class="st0">
	<g id="Bell">
	</g>
	<g id="Picture">
		<path class="st2" d="M31.9,5.4c-0.8,0-1.5,0.7-1.5,1.5s0.7,1.5,1.5,1.5c0.8,0,1.5-0.7,1.5-1.5S32.7,5.4,31.9,5.4z M41.1,2.6h-12
			c-1.1,0-2,0.9-2,2v10.1c0,1.1,0.9,2,2,2h12.1c1.1,0,2-0.9,2-2v-10C43.1,3.5,42.3,2.6,41.1,2.6z M41.6,14.5l-4.3-5.8
			c-0.1-0.1-0.3-0.2-0.4-0.2c-0.2,0-0.4,0.1-0.5,0.2l-3.3,4.5l-1.2-1.4c-0.1-0.1-0.3-0.2-0.5-0.2s-0.4,0.1-0.5,0.2l-2.4,2.9l0,0v-10
			c0-0.3,0.2-0.5,0.5-0.5h12.1c0.3,0,0.5,0.2,0.5,0.5V14.5L41.6,14.5z"/>
	</g>
	<g id="List">
		<path class="st2" d="M2.6,4.2C2.3,4.2,2,4.5,2,4.9v1.3c0,0.3,0.3,0.6,0.6,0.6h1.3c0.3,0,0.6-0.3,0.6-0.6V4.9
			c0-0.3-0.3-0.6-0.6-0.6H2.6V4.2z M6.6,4.7C6.1,4.7,5.8,5,5.8,5.5s0.4,0.8,0.8,0.8h7.5C14.6,6.3,15,6,15,5.5s-0.4-0.8-0.8-0.8H6.6z
			 M6.6,8.8c-0.5,0-0.8,0.4-0.8,0.8s0.4,0.8,0.8,0.8h7.5c0.5,0,0.8-0.4,0.8-0.8s-0.4-0.8-0.8-0.8H6.6z M6.6,13
			c-0.5,0-0.8,0.4-0.8,0.8s0.4,0.8,0.8,0.8h7.5c0.5,0,0.8-0.4,0.8-0.8S14.6,13,14.1,13H6.6z M2,9.1v1.3C2,10.7,2.3,11,2.6,11h1.3
			c0.3,0,0.6-0.3,0.6-0.6V9.1c0-0.3-0.3-0.6-0.6-0.6H2.6C2.3,8.4,2,8.7,2,9.1z M2.6,12.6c-0.3,0-0.6,0.3-0.6,0.6v1.3
			c0,0.3,0.3,0.6,0.6,0.6h1.3c0.3,0,0.6-0.3,0.6-0.6v-1.3c0-0.3-0.3-0.6-0.6-0.6H2.6z"/>
	</g>
	<g id="Home">
		<path class="st2" d="M16.5,9.7c0,0.5-0.4,0.9-0.9,0.9h-0.9v4.5c0,0.1,0,0.2,0,0.2v0.4c0,0.6-0.5,1.1-1.1,1.1h-0.4h-0.1H13h-1h-0.7
			c-0.6,0-1.1-0.5-1.1-1.1V15v-1.8c0-0.5-0.4-0.9-0.9-0.9H7.6c-0.5,0-0.9,0.4-0.9,0.9V15v0.7c0,0.6-0.5,1.1-1.1,1.1H4.9H4H3.9H3.8
			H3.4c-0.6,0-1.1-0.5-1.1-1.1v-3.1v-0.1v-1.9h-1c-0.5,0-0.9-0.4-0.9-0.9c0-0.3,0.1-0.5,0.3-0.7l7.1-6.2C8,2.6,8.2,2.6,8.4,2.6
			S8.8,2.7,9,2.8L16.2,9C16.4,9.2,16.5,9.4,16.5,9.7z"/>
	</g>
	<g id="Messages">
		<path class="st2" d="M14.5,2h-12c-1.1,0-2,0.9-2,2v9c0,1.1,0.9,2,2,2h3v2.6c0,0.3,0.3,0.5,0.6,0.3L10,15h4.5c1.1,0,2-0.9,2-2V4
			C16.5,2.9,15.6,2,14.5,2z M15,13c0,0.3-0.2,0.5-0.5,0.5h-5L7,15.4v-1.9H2.5C2.2,13.5,2,13.3,2,13V4c0-0.3,0.2-0.5,0.5-0.5h12
			C14.8,3.5,15,3.7,15,4V13z"/>
	</g>
	<g id="Folder">
		<path class="st2" d="M14.6,5H9.2L7.7,3.6C7.3,3.2,6.8,3,6.3,3H2.6c-1.1,0-2,0.9-2,2v10c0,1.1,0.9,2,2,2h12c1.1,0,2-0.9,2-2V7
			C16.6,5.9,15.7,5,14.6,5z M15.1,15c0,0.3-0.2,0.5-0.5,0.5h-12c-0.3,0-0.5-0.2-0.5-0.5V5c0-0.3,0.2-0.5,0.5-0.5h3.7
			c0.1,0,0.3,0.1,0.4,0.1l2,1.9h6c0.3,0,0.5,0.2,0.5,0.5v8H15.1z"/>
	</g>
	<g id="Wallet" class="st1">
		<path class="st3" d="M5.2,11.9c0.4,0,0.7,0.3,0.7,0.7s-0.3,0.7-0.7,0.7H3.8c-0.4,0-0.7-0.3-0.7-0.7s0.3-0.7,0.7-0.7H5.2z
			 M10.5,11.9c0.4,0,0.7,0.3,0.7,0.7s-0.3,0.7-0.7,0.7H7.4c-0.4,0-0.7-0.3-0.7-0.7s0.3-0.7,0.7-0.7H10.5z M14.7,3.5
			c1,0,1.8,0.8,1.8,1.8v8.8c0,1-0.8,1.8-1.8,1.8H2.3c-1,0-1.8-0.8-1.8-1.8V5.3c0-1,0.8-1.8,1.8-1.8L14.7,3.5z M14.7,4.8H2.3
			C2,4.8,1.8,5,1.8,5.3v0.9h13.3V5.3C15.1,5,14.9,4.8,14.7,4.8z M15.1,8.8H1.8v5.3c0,0.2,0.2,0.4,0.4,0.4h12.4
			c0.2,0,0.4-0.2,0.4-0.4V8.8H15.1z"/>
	</g>
</g>
<g id="Wishes" class="st0">
	<path class="st1" d="M6.7,12.9L6.7,12.9L6.7,12.9C6.7,12.9,6.7,12.9,6.7,12.9z"/>
	<g class="st1">
		<path class="st3" d="M16,9.7c0,4.3-3.6,7.8-8,7.6c-3.9-0.2-7.1-3.5-7.2-7.4c0-1.5,0.4-2.9,1-4c0.4,2.6,1.2,5,3.2,5.7
			c-1.5-3,5.5-6.7-0.3-8.5c1.1-0.6,2.3-0.9,3.7-0.9c0.9,0,1.8,0.2,2.6,0.5c2.6,0.9,4.1,3.7,3.2,6.3c-0.2,0.7-0.6,1.3-1.2,1.7
			c0.2,0.7,2.5,0.4,2.9-1.8C16,9.1,16,9.4,16,9.7z"/>
	</g>
</g>
<g id="Admin" class="st0">
	<path class="st2" d="M8.4,13.4c-1.9-0.1-3.5-1.7-3.5-3.7c0-0.7,0.2-1.4,0.5-2C5.6,9.1,6,10.3,7,10.6C6.3,9.2,9.7,7.3,6.8,6.4
		C7.4,6.1,8,6,8.6,6C9.1,6,9.5,6,9.9,6.2c1.3,0.5,2,1.8,1.6,3.1c-0.1,0.3-0.3,0.7-0.6,0.8c0.1,0.4,1.2,0.2,1.4-0.9
		c0,0.2,0,0.3,0,0.5C12.4,11.8,10.6,13.6,8.4,13.4z"/>
	<path class="st2" d="M1.4,7.6c0-0.3,0-0.7,0-1c0,0,0-0.1,0-0.1c0-0.7,0.1-1.3,0.1-2c0-0.2,0.1-0.4,0.4-0.5c1.9-0.7,3.8-1.4,5.7-2.1
		c0.3-0.1,0.5-0.2,0.8-0.3c0.1,0,0.1,0,0.2,0c0,0,0.1,0,0.1,0c2.1,0.8,4.3,1.6,6.4,2.3c0.2,0.1,0.3,0.2,0.4,0.5c0,0.3,0.1,0.7,0.1,1
		c0.1,1.3,0.1,2.5-0.1,3.8c-0.1,0.8-0.2,1.6-0.5,2.3c-0.4,1.4-1,2.6-2,3.7c-1,1.1-2.3,1.9-3.8,2.3c-0.4,0.1-0.8,0.2-1.2,0.1
		c-1.4-0.3-2.6-0.9-3.6-1.8c-1.1-1-1.9-2.3-2.4-3.7c-0.4-1.3-0.6-2.6-0.7-4C1.4,8,1.4,7.8,1.4,7.6z M14.7,7C14.7,7,14.7,7,14.7,7
		c0-0.7-0.1-1.3-0.1-2c0-0.1,0-0.1-0.1-0.2c-2-0.7-3.9-1.4-5.9-2.1c0,0-0.1,0-0.2,0C7.6,3,6.7,3.3,5.8,3.7C4.8,4.1,3.7,4.4,2.6,4.8
		c0,0-0.1,0-0.1,0.1C2.5,5.8,2.4,6.6,2.4,7.4c0,1,0.1,2,0.3,3c0.2,1.2,0.6,2.3,1.3,3.3c1,1.5,2.3,2.5,4,2.9c0.2,0,0.4,0.1,0.5,0.1
		c0.4,0,0.8-0.1,1.1-0.3c1.6-0.6,2.7-1.6,3.5-3c0.7-1.1,1-2.3,1.2-3.6C14.7,8.9,14.7,7.9,14.7,7z"/>
</g>
<g id="Icongnit" class="st0">
	<g class="st1">
		<path class="st3" d="M10.6,3.5c0.4,0.1,0.6,0.4,0.7,0.7c0.6,1.5,1.1,2.9,1.7,4.4c0,0,0,0.1,0.1,0.2c-3,0-6,0-9,0
			c0-0.1,0-0.1,0-0.1c0.6-1.5,1.2-3,1.7-4.5c0.1-0.3,0.3-0.5,0.7-0.6c0.1,0,0.2,0,0.3,0C7.3,3.7,7.9,3.9,8.5,4c0,0,0.1,0,0.1,0
			c0.6-0.2,1.2-0.4,1.7-0.6C10.4,3.5,10.5,3.5,10.6,3.5z"/>
		<path class="st3" d="M1,9.9c0.1,0,0.1,0,0.2,0c4.9,0,9.8,0,14.6,0c0.1,0,0.1,0,0.2,0c0,0.4,0,0.7,0,1.1c-5,0-10,0-15,0
			C1,10.6,1,10.2,1,9.9z"/>
		<path class="st3" d="M7.6,14.1c1-0.2,1-0.2,1.8,0c0.1-0.3,0.2-0.5,0.3-0.8c0.6-1.1,1.7-1.7,2.9-1.5c1.3,0.2,2.3,1.1,2.5,2.3
			c0.4,1.7-0.7,3.3-2.4,3.6C11.3,18,9.8,17,9.4,15.4c0-0.1,0-0.2,0-0.2c0-0.2-0.1-0.2-0.2-0.3c-0.5-0.2-1-0.2-1.4,0
			c-0.1,0-0.1,0.1-0.1,0.2c-0.2,1.6-1.6,2.8-3.2,2.6c-1.3-0.1-2.4-1.1-2.7-2.5c-0.3-1.4,0.5-2.9,1.9-3.4c1.6-0.6,3.4,0.3,3.9,2
			C7.5,14,7.6,14,7.6,14.1z M14.4,14.8c0-1.2-0.9-2.1-2.1-2.1c-1.2,0-2.1,1-2.1,2.2c0,1.2,0.9,2.1,2.1,2.1
			C13.5,16.9,14.4,15.9,14.4,14.8z M6.8,14.8c0-1.2-0.9-2.1-2.1-2.2c-1.1,0-2.1,0.9-2.1,2.1c0,1.2,0.9,2.2,2,2.2
			C5.8,16.9,6.8,16,6.8,14.8z"/>
	</g>
</g>
<g id="Log_out" class="st0">
	<g class="st1">
		<path class="st3" d="M11.3,14.4c-0.5,0-0.9,0.4-0.9,0.9c0,0.5,0.4,0.9,0.9,0.9h1.9c1.6,0,2.8-1.3,2.8-2.8V5.9
			c0-1.6-1.3-2.8-2.8-2.8h-1.9c-0.5,0-0.9,0.4-0.9,0.9S10.8,5,11.3,5h1.9c0.5,0,0.9,0.4,0.9,0.9v7.5c0,0.5-0.4,0.9-0.9,0.9H11.3z
			 M1.2,9.2C1.1,9.3,1,9.5,1,9.7c0,0.2,0.1,0.4,0.2,0.5l4.2,4c0.2,0.2,0.5,0.2,0.8,0.1c0.3-0.1,0.4-0.4,0.4-0.6v-2.1h3.8
			c0.5,0,0.9-0.4,0.9-0.9V8.8c0-0.5-0.4-0.9-0.9-0.9H6.6V5.7c0-0.3-0.2-0.5-0.4-0.6C5.9,4.9,5.6,5,5.4,5.2L1.2,9.2z"/>
	</g>
</g>
<g id="Flama" class="st0">
	<radialGradient id="SVGID_1_" cx="8.5" cy="9.7" r="6.8024" gradientUnits="userSpaceOnUse">
		<stop  offset="0" style="stop-color:#FF4D1D"/>
		<stop  offset="0.3461" style="stop-color:#FE4B20"/>
		<stop  offset="0.5819" style="stop-color:#FC4429"/>
		<stop  offset="0.7849" style="stop-color:#F83838"/>
		<stop  offset="0.9683" style="stop-color:#F2274D"/>
		<stop  offset="1" style="stop-color:#F12352"/>
	</radialGradient>
	<path class="st4" d="M8.1,16.5c-3.5-0.2-6.4-3.1-6.4-6.6c0-1.3,0.3-2.5,0.9-3.6c0.3,2.3,1.1,4.5,2.9,5.1c-1.3-2.6,4.9-6-0.3-7.6
		c1-0.5,2.1-0.8,3.3-0.8c0.8,0,1.6,0.1,2.3,0.4c2.3,0.8,3.6,3.3,2.9,5.6c-0.2,0.6-0.5,1.2-1.1,1.5c0.2,0.7,2.2,0.3,2.6-1.6
		c0,0.3,0.1,0.6,0.1,0.8C15.3,13.6,12.1,16.7,8.1,16.5z"/>
</g>
<g id="Coment" class="st0">
	<path class="st5" d="M8.5,2.6C4,2.6,0.4,5.6,0.4,9.2c0,1.5,0.6,2.9,1.7,4c-0.5,1.3-1.5,2.3-1.5,2.3c-0.2,0.2-0.3,0.5-0.1,0.8
		c0.1,0.3,0.4,0.5,0.7,0.5c1.9,0,3.5-0.8,4.4-1.5c0.9,0.3,1.9,0.5,2.9,0.5c4.5,0,8.1-2.9,8.1-6.6S13,2.6,8.5,2.6z M8.5,14.3
		c-0.8,0-1.7-0.1-2.5-0.4l-0.7-0.2l-0.6,0.4c-0.5,0.3-1.1,0.7-1.8,0.9c0.2-0.4,0.5-0.8,0.6-1.3l0.3-0.9l-0.7-0.7
		c-0.6-0.6-1.3-1.6-1.3-3c0-2.8,3-5.1,6.6-5.1s6.6,2.3,6.6,5.1S12.1,14.3,8.5,14.3z"/>
</g>
<g id="Edith" class="st0">
	<path class="st2" d="M13.5,4.7L13.8,5c0.2,0.2,0.2,0.6,0,0.8l-0.7,0.7l-1.1-1.1l0.7-0.7C12.9,4.5,13.3,4.5,13.5,4.7L13.5,4.7z
		 M7.7,9.6l3.3-3.3l1.1,1.1l-3.3,3.3c-0.1,0.1-0.2,0.1-0.3,0.2l-1.5,0.4l0.4-1.5C7.6,9.8,7.7,9.7,7.7,9.6L7.7,9.6z M11.8,3.9
		L6.9,8.8C6.7,9,6.5,9.3,6.4,9.6l-0.7,2.5c-0.1,0.2,0,0.4,0.2,0.6s0.4,0.2,0.6,0.2L9,12.1c0.3-0.1,0.6-0.2,0.8-0.5l4.9-4.9
		c0.7-0.7,0.7-1.8,0-2.5l-0.3-0.3C13.6,3.2,12.5,3.2,11.8,3.9z M4.7,4.9c-1.2,0-2.2,1-2.2,2.2v6.8c0,1.2,1,2.2,2.2,2.2h6.8
		c1.2,0,2.2-1,2.2-2.2V11c0-0.3-0.3-0.6-0.6-0.6c-0.3,0-0.6,0.3-0.6,0.6v2.8c0,0.5-0.4,1-1,1H4.7c-0.5,0-1-0.4-1-1V7.1
		c0-0.5,0.4-1,1-1h2.8c0.3,0,0.6-0.3,0.6-0.6c0-0.3-0.3-0.6-0.6-0.6H4.7z"/>
</g>
<g id="New_Product" class="st0">
	<g class="st1">
		<path class="st3" d="M4.2,5.4c0.1-2.6,2.1-4.2,4.1-4.3c2.1-0.1,4.4,1.6,4.4,4.3c0.3,0,0.6,0,0.9,0c0.3,0,0.7,0,1,0.1
			c0.9,0.1,1.5,0.7,1.6,1.6c0.1,0.5,0.1,1.1,0.1,1.6c0,1.8,0,3.7,0,5.5c0,0.5-0.1,1-0.2,1.5c-0.3,1.3-1.2,2.2-2.5,2.3
			c-0.8,0.1-1.6,0.1-2.5,0.2c-2.1,0-4.2,0-6.3,0c-0.5,0-1-0.1-1.5-0.2c-1.4-0.3-2.3-1.1-2.5-2.6c-0.1-0.7-0.1-1.5-0.1-2.3
			c0-1.7,0-3.5,0-5.2c0-0.3,0-0.6,0.1-1c0.2-0.9,0.7-1.4,1.6-1.5c0.5-0.1,1-0.1,1.6-0.1C4,5.4,4.1,5.4,4.2,5.4z M8.5,6.8
			C8.5,6.8,8.5,6.8,8.5,6.8c-1.9,0-3.7,0-5.6,0C2.2,6.8,2.1,7,2.1,7.7c0,1.4,0,2.8,0,4.3c0,1,0,2,0.1,3.1c0.1,1.1,0.6,1.6,1.7,1.8
			c0.4,0,0.8,0.1,1.2,0.1c2.2,0,4.4,0,6.5,0c0.7,0,1.3-0.1,2-0.2c0.6-0.1,1-0.5,1.2-1.1c0.1-0.4,0.2-0.9,0.2-1.4c0-2.1,0-4.2,0-6.3
			c0-0.9-0.1-1-1-1C12.1,6.8,10.3,6.8,8.5,6.8z M11.4,5.4c0-1.1-0.5-1.9-1.4-2.4C9,2.4,8,2.4,6.9,3C6.1,3.6,5.6,4.4,5.6,5.4
			C7.5,5.4,9.4,5.4,11.4,5.4z"/>
		<path class="st3" d="M7.8,12.8c-0.4,0-0.9,0-1.3,0c-0.3,0-0.5-0.1-0.7-0.4c-0.1-0.2-0.1-0.5,0.1-0.7c0.2-0.2,0.4-0.3,0.6-0.3
			c0.4,0,0.8,0,1.2,0c0-0.5,0-0.9,0-1.3c0-0.4,0.3-0.7,0.7-0.7c0.4,0,0.7,0.3,0.7,0.7c0,0.4,0,0.9,0,1.4c0.4,0,0.8,0,1.1,0
			c0.1,0,0.2,0,0.3,0c0.4,0,0.7,0.3,0.6,0.7c0,0.4-0.3,0.6-0.7,0.6c-0.4,0-0.7,0-1.1,0c-0.1,0-0.2,0-0.3,0c0,0.3,0,0.5,0,0.7
			c0,0.2,0,0.4,0,0.6c0,0.4-0.3,0.7-0.7,0.7c-0.4,0-0.7-0.3-0.7-0.7c0-0.4,0-0.8,0-1.2C7.8,12.9,7.8,12.9,7.8,12.8z"/>
	</g>
</g>
<g id="Check">
	<path class="st3" d="M8.2,12.7c-0.3,0.3-0.9,0.3-1.3,0l-2-2c-0.3-0.3-0.3-0.9,0-1.3C5.2,9,5.8,9,6.1,9.4l1.4,1.4L11,7.3
		c0.3-0.3,0.9-0.3,1.3,0c0.3,0.3,0.3,0.9,0,1.3L8.2,12.7z M16.7,10c0,4.5-3.7,8.2-8.2,8.2S0.4,14.5,0.4,10S4,1.8,8.6,1.8
		S16.7,5.5,16.7,10z M8.6,3.4c-3.7,0-6.6,3-6.6,6.6s3,6.6,6.6,6.6s6.6-3,6.6-6.6S12.2,3.4,8.6,3.4z"/>
</g>
</svg>
