<svg width="58" height="50" viewBox="0 0 58 50" fill="none" xmlns="http://www.w3.org/2000/svg">
<g clip-path="url(#clip0_1009_811)">
<path d="M28.7293 20.0631C26.7697 19.9639 24.8386 19.5632 23.0082 18.8759C20.8524 14.9262 18.012 11.3674 14.612 8.35589C13.0658 7.07846 4.70052 0.841614 3.94285 0.841614C2.18012 2.55487 -3.4637 12.3535 6.57149 23.3844C6.49974 27.4178 6.86251 31.4473 7.65387 35.4073C6.72611 39.9159 5.9066 51.2173 13.3595 49.0382C20.8125 46.859 23.6112 46.5885 26.178 44.2441C26.3293 43.6158 26.6847 43.0516 27.1915 42.6348C27.6983 42.218 28.3296 41.9708 28.9922 41.9297" stroke="white" stroke-width="2" stroke-miterlimit="10" stroke-linecap="round"/>
<path d="M10.9013 29.1206C11.1947 29.4878 11.5868 29.7691 12.0342 29.9335C12.4817 30.0979 12.9672 30.1391 13.4371 30.0524C15.1689 29.7969 19.9469 28.1137 23.0394 33.6592C25.1577 37.5516 25.0804 38.3481 25.0804 38.3481C22.158 38.3481 16.6224 38.7389 15.339 38.6788C14.0556 38.6187 10.8394 37.2511 10.9013 29.1206Z" fill="white"/>
<path d="M25.1573 29.441C22.9616 29.0953 22.4978 25.8792 22.0648 24.0758C21.8862 23.111 21.3325 22.25 20.5186 21.6712" stroke="#FF4D00" stroke-width="2" stroke-linecap="round" stroke-linejoin="round"/>
<path d="M29.0695 28.5533C29.7527 28.5533 30.3065 28.015 30.3065 27.351C30.3065 26.687 29.7527 26.1487 29.0695 26.1487C28.3863 26.1487 27.8325 26.687 27.8325 27.351C27.8325 28.015 28.3863 28.5533 29.0695 28.5533Z" fill="white"/>
<path d="M13.5737 12.4851C12.1732 13.0496 9.4369 14.5798 7.86745 18.6336C5.66628 15.1926 4.98779 12.3073 4.98779 10.1762C4.98779 9.02373 5.18599 8.09075 5.44936 7.40491C5.64657 6.89137 5.86995 6.54189 6.05437 6.33601C6.70148 6.62059 7.46843 7.10896 8.28317 7.71701C9.20806 8.40727 10.1635 9.22802 11.0294 10.0193C11.8944 10.8097 12.6648 11.566 13.2192 12.1249C13.35 12.2567 13.4687 12.3775 13.5737 12.4851Z" fill="#FF4D00" stroke="white"/>
<path d="M52.9967 10.1762C52.9967 12.3073 52.3182 15.1926 50.117 18.6336C48.5476 14.5798 45.8112 13.0496 44.4107 12.4851C44.5157 12.3775 44.6344 12.2567 44.7652 12.1249C45.3196 11.566 46.09 10.8097 46.955 10.0193C47.821 9.22802 48.7764 8.40727 49.7013 7.71701C50.516 7.10896 51.283 6.62059 51.9301 6.33601C52.1145 6.54189 52.3379 6.89137 52.5351 7.40491C52.7985 8.09075 52.9967 9.02373 52.9967 10.1762Z" fill="#FF4D00" stroke="white"/>
<path d="M29.255 20.0631C31.2147 19.9639 33.1457 19.5632 34.9762 18.8759C37.132 14.9262 39.9723 11.3674 43.3724 8.35589C44.9186 7.07846 53.2838 0.841614 54.0415 0.841614C55.8042 2.55487 61.4481 12.3535 51.4129 23.3844C51.4846 27.4178 51.1219 31.4473 50.3305 35.4073C51.2582 39.9159 52.0778 51.2173 44.6248 49.0382C37.1719 46.859 34.3732 46.5885 31.8064 44.2441C31.655 43.6158 31.2997 43.0516 30.7929 42.6348C30.2861 42.218 29.6547 41.9708 28.9922 41.9297" stroke="white" stroke-width="2" stroke-miterlimit="10" stroke-linecap="round"/>
<path d="M47.0833 29.1206C46.7899 29.4878 46.3978 29.7691 45.9504 29.9335C45.5029 30.0979 45.0174 30.1391 44.5475 30.0524C42.8157 29.7969 38.0377 28.1137 34.9452 33.6592C32.8269 37.5516 32.9042 38.3481 32.9042 38.3481C35.8266 38.3481 41.3622 38.7389 42.6456 38.6788C43.929 38.6187 47.1452 37.2511 47.0833 29.1206Z" fill="white"/>
<path d="M32.8423 29.4109C35.0225 29.0652 35.4864 25.8792 35.9348 24.0908C36.1171 23.1315 36.6704 22.2765 37.481 21.7012" stroke="#FF4D00" stroke-width="2" stroke-linecap="round" stroke-linejoin="round"/>
<path d="M15.7407 9.34776C19.5352 6.73456 24.0885 5.36626 28.7383 5.44194C33.3881 5.51763 37.8918 7.03334 41.5941 9.76856" stroke="white" stroke-width="2" stroke-miterlimit="10"/>
</g>
<defs>
<clipPath id="clip0_1009_811">
<rect width="58" height="50" fill="white"/>
</clipPath>
</defs>
</svg>
