<svg width="61" height="53" viewBox="0 0 61 53" fill="none" xmlns="http://www.w3.org/2000/svg">
<g clip-path="url(#clip0_1009_822)">
<path d="M51.0145 8.64659C50.3476 6.49755 49.0965 4.57467 47.4 3.09125C45.7035 1.60784 43.628 0.621896 41.4036 0.242788C36.3265 -0.616267 31.2681 1.84885 27.5212 7.00318C17.8916 20.2999 24.9733 36.4538 27.821 39.8154C28.1911 40.3275 28.7271 40.6969 29.3385 40.8612C29.7757 40.9612 30.2343 40.9016 30.6312 40.6931C30.8982 40.5698 31.1324 40.3855 31.3147 40.1551C31.4969 39.9247 31.6222 39.6548 31.6803 39.3672C31.7738 38.9679 31.7738 38.5526 31.6803 38.1533C30.0504 30.4405 33.1229 29.32 38.2187 27.4524C41.105 26.5869 43.7873 25.1515 46.106 23.2319C50.696 18.9179 52.4758 13.5768 51.0145 8.64659ZM43.5206 20.4119C41.5844 21.9826 39.356 23.1567 36.9635 23.8668C33.2165 25.2488 29.1324 26.7428 27.9146 31.4302C26.0412 25.641 25.1044 16.7516 30.6312 9.11347C33.5538 5.09832 37.1883 3.23081 40.8603 3.84709L41.3286 3.94046C42.7724 4.28132 44.1013 4.99353 45.1828 6.00606C46.2643 7.01859 47.0606 8.29606 47.4923 9.71108C48.4853 13.3154 47.1176 17.0504 43.5393 20.4119H43.5206Z" fill="white"/>
<path d="M58.246 36.3231C57.4252 34.7208 56.1575 33.389 54.5954 32.4879C53.0333 31.5867 51.2433 31.1546 49.4407 31.2435C39.4364 30.8886 34.5654 39.4605 33.2165 44.5028C32.8044 46.1462 32.5608 47.9017 33.9472 48.5926L34.2282 48.7047C34.6011 48.8175 35.0001 48.8116 35.3694 48.6877C35.7388 48.5639 36.0603 48.3283 36.289 48.0137C39.2491 44.4094 40.8228 45.1938 43.9515 46.7625C45.3761 47.5494 46.9013 48.1399 48.4853 48.5179C50.0825 48.9628 51.7748 48.9367 53.3574 48.4429C54.9401 47.949 56.3452 47.0086 57.4029 45.7354C58.397 44.3949 59.0015 42.8075 59.1502 41.1472C59.299 39.4869 58.9861 37.8179 58.246 36.3231ZM54.7052 43.6437C54.0355 44.4047 53.158 44.9548 52.1799 45.2268C51.2017 45.4987 50.1652 45.4808 49.1972 45.1751C47.8909 44.8425 46.6319 44.3468 45.4502 43.6998C43.2021 42.5606 40.5418 41.2346 37.5255 42.5979C38.3215 40.9274 39.3987 39.4051 40.7104 38.0972C41.8291 36.9336 43.1865 36.0243 44.6899 35.4313C46.1933 34.8383 47.8074 34.5755 49.422 34.661C50.247 34.658 51.0679 34.7775 51.8575 35.0158C52.5839 35.2245 53.2581 35.5834 53.8359 36.0693C54.4137 36.5552 54.8823 37.1572 55.211 37.8358C55.6695 38.7569 55.8648 39.7861 55.7756 40.8105C55.6864 41.8349 55.316 42.8152 54.7052 43.6437Z" fill="#FF4D1D"/>
<path d="M4.21545 20.1878C4.61063 21.1444 5.27601 21.966 6.13074 22.5528C6.98547 23.1396 7.99277 23.4663 9.03025 23.4933C10.0474 23.5561 11.0685 23.4807 12.0653 23.2692C14.2385 22.9144 15.3064 22.7276 16.4117 25.4355C16.4926 25.6637 16.6422 25.8615 16.84 26.0018C17.0378 26.1422 17.2742 26.2183 17.517 26.2198H17.7044C18.6599 26.0704 18.8472 24.9686 18.9034 23.9228C19.0533 20.636 17.7044 14.5852 11.6718 13.0165C10.6086 12.6269 9.45471 12.5536 8.35046 12.8055C7.24622 13.0575 6.23922 13.6239 5.45193 14.4358C4.74027 15.1917 4.24903 16.1268 4.03114 17.1404C3.81325 18.154 3.87697 19.2076 4.21545 20.1878ZM7.02564 15.8925C7.34634 15.5439 7.73761 15.267 8.1736 15.0803C8.60959 14.8936 9.08037 14.8012 9.55482 14.8093C10.0703 14.8107 10.5823 14.8926 11.0723 15.0521C12.0626 15.3073 12.9857 15.7734 13.778 16.4181C14.5704 17.0629 15.2132 17.8711 15.6623 18.7872C16.1703 19.8085 16.5058 20.9064 16.6552 22.0366C15.954 21.5211 15.1396 21.1793 14.2796 21.0397C13.4195 20.9 12.5385 20.9665 11.7093 21.2336C10.8967 21.4037 10.066 21.4727 9.23633 21.439C8.60722 21.447 7.98894 21.2755 7.45448 20.9445C6.92002 20.6136 6.49169 20.1372 6.22005 19.5715C5.98524 18.9487 5.93278 18.2723 6.06877 17.6209C6.20476 16.9696 6.52361 16.3702 6.98817 15.8925H7.02564Z" fill="#FF4D1D"/>
<path d="M23.3808 40.8052C23.1372 37.8358 19.409 28.7784 10.1541 27.2657C8.55102 26.875 6.8688 26.9544 5.30995 27.4945C3.75109 28.0345 2.38204 29.0122 1.36757 30.3097C0.566972 31.4409 0.097471 32.7716 0.0114589 34.1534C-0.0745533 35.5351 0.226307 36.9134 0.880465 38.1346C1.49811 39.2503 2.37497 40.2021 3.4376 40.9105C4.50023 41.6188 5.71768 42.063 6.98796 42.2058C7.67737 42.2941 8.37293 42.3253 9.06751 42.2992C10.8146 42.1452 12.5142 41.6503 14.0697 40.8425C14.997 40.2774 16.0558 39.9621 17.1421 39.9274C17.929 40.0395 18.6784 40.6931 19.6338 42.1684C19.8562 42.5737 20.2149 42.8877 20.6467 43.0551C21.0786 43.2225 21.5558 43.2325 21.9944 43.0835C22.4639 42.9367 22.8636 42.6244 23.1188 42.2051C23.374 41.7857 23.4671 41.288 23.3808 40.8052ZM12.6084 37.4436C11.511 38.0432 10.3095 38.4298 9.06751 38.5828C8.1333 38.708 7.18265 38.5655 6.3267 38.1719C5.47076 37.7784 4.74489 37.1501 4.23397 36.3605C3.91246 35.7532 3.7651 35.0694 3.80806 34.3841C3.85103 33.6989 4.08267 33.0387 4.47752 32.4761C5.07757 31.7817 5.86054 31.2685 6.7379 30.9946C7.61526 30.7207 8.552 30.6969 9.4422 30.926H9.61081C11.2113 31.2078 12.7356 31.8182 14.0869 32.7184C15.4382 33.6185 16.5871 34.7888 17.4606 36.1551C15.7593 36.1639 14.0886 36.6076 12.6084 37.4436Z" fill="white"/>
<path d="M22.6879 46.3517C22.1849 47.202 21.9077 48.1661 21.8823 49.153C21.8567 49.8749 21.6913 50.5852 21.3952 51.2446C21.1819 51.7484 20.8289 52.1811 20.3776 52.492C19.9263 52.8029 19.3955 52.9792 18.8473 53C18.4481 52.9806 18.0619 52.8517 17.7314 52.6277C17.4009 52.4036 17.1387 52.0931 16.9738 51.7301C16.7995 51.2261 16.7721 50.6831 16.8948 50.1641C17.0175 49.6452 17.2852 49.1715 17.667 48.7981C18.2847 48.0618 19.051 47.4634 19.9161 47.0419C20.7811 46.6204 21.7256 46.3852 22.6879 46.3517Z" fill="white"/>
<path d="M51.333 25.4542C52.3123 24.6199 53.066 23.554 53.525 22.3541C53.861 21.4762 54.3635 20.671 55.005 19.9824C55.447 19.4468 56.0443 19.0606 56.7151 18.8767C57.3859 18.6928 58.0974 18.7203 58.7519 18.9553C59.2149 19.1676 59.6103 19.5031 59.8945 19.9248C60.1788 20.3465 60.3409 20.8381 60.3631 21.3457C60.3427 22.0502 60.1295 22.7358 59.7464 23.3283C59.3634 23.9208 58.8252 24.3976 58.1899 24.7072C56.6669 25.6425 54.869 26.0313 53.0941 25.809C52.4974 25.7447 51.9079 25.6259 51.333 25.4542Z" fill="#FF4D1D" stroke="white" stroke-width="0.75" stroke-linejoin="round"/>
</g>
<defs>
<clipPath id="clip0_1009_822">
<rect width="61" height="53" fill="white"/>
</clipPath>
</defs>
</svg>
