<svg width="65" height="33" viewBox="0 0 65 33" fill="none" xmlns="http://www.w3.org/2000/svg">
<path d="M23.9216 2.40369C26.7653 2.1194 29.6218 1.98341 32.4796 1.99629C37.5289 1.95136 42.5729 2.33296 47.558 3.13703C56.3605 4.48147 62.4326 7.2111 62.9624 10.1037V10.9592C62.6771 12.3852 61.1285 13.8111 58.5204 15.0333C55.0286 13.4867 51.3394 12.431 47.558 11.8963C42.578 11.043 37.532 10.634 32.4796 10.6741C29.5047 10.6741 26.6113 10.6741 23.9216 11.0407C17.9207 11.4147 12.025 12.7918 6.4796 15.1148C3.87145 13.9741 2.40437 12.5481 2.0376 11.0407V10.1444C2.40437 8.18888 5.09402 6.39629 9.33227 5.0111" stroke="white" stroke-width="2" stroke-miterlimit="10" stroke-linecap="round"/>
<path d="M28.7712 23.7111C26.0816 23.7111 23.4327 23.7111 20.9468 23.4259" stroke="white" stroke-width="3" stroke-linecap="round" stroke-linejoin="round"/>
<path d="M50.7366 22.3666C48.0469 22.774 45.4388 23.0592 42.9937 23.2629" stroke="white" stroke-width="3" stroke-linecap="round" stroke-linejoin="round"/>
<path d="M23.9216 18.7V28.6C11.6959 27.5407 2.73039 24.2407 2.0376 20.4518V11C2.32286 12.4259 3.87145 13.8519 6.4796 15.0741C12.0565 17.2269 17.9485 18.4518 23.9216 18.7Z" stroke="white" stroke-width="2" stroke-miterlimit="10"/>
<path d="M62.9625 11V20.2889C62.4327 23.5074 56.3606 26.2778 47.5581 27.7852V17.9259C51.3281 17.4483 55.0159 16.4615 58.5205 14.9926C61.1286 13.8519 62.6772 12.4259 62.9625 11Z" stroke="white" stroke-width="2" stroke-miterlimit="10"/>
<path d="M43.4014 23.8333C43.4083 25.2152 43.0308 26.5717 42.3112 27.7516C41.5916 28.9314 40.5581 29.8881 39.3262 30.5148C38.2493 31.138 37.0251 31.4615 35.7808 31.4518C34.655 31.4351 33.545 31.1854 32.5206 30.7185C31.2208 30.0995 30.1243 29.1232 29.3593 27.9038C28.5943 26.6845 28.1924 25.2726 28.2008 23.8333C28.199 22.564 28.5196 21.3149 29.1325 20.2033C29.7455 19.0916 30.6309 18.1538 31.7055 17.4778C32.8632 16.7432 34.1985 16.3363 35.5692 16.3004C36.9399 16.2645 38.2947 16.601 39.4892 17.2741C40.6723 17.9132 41.6605 18.8602 42.3492 20.0149C43.0379 21.1696 43.4015 22.4889 43.4014 23.8333Z" stroke="white" stroke-width="2" stroke-miterlimit="10"/>
<g clip-path="url(#clip0_1009_802)">
<path d="M40 23.4232C40 23.7994 39.9202 24.1704 39.7668 24.5069C39.6135 24.8433 39.3909 25.136 39.1166 25.3617L35.9264 27.9463L32.6871 25.254C32.464 25.0171 32.2878 24.7322 32.1696 24.4172C32.0513 24.1022 31.9936 23.7638 32 23.4232C32 22.7806 32.2327 22.1643 32.6469 21.7099C33.0611 21.2554 33.6228 21.0002 34.2086 21.0002C34.558 20.9924 34.9035 21.0822 35.2125 21.2612C35.5216 21.4401 35.7841 21.7024 35.9754 22.0232C36.1778 21.7016 36.4494 21.4399 36.7663 21.2614C37.0831 21.0829 37.4353 20.9932 37.7914 21.0002C38.0814 21.0002 38.3686 21.0628 38.6366 21.1846C38.9045 21.3064 39.148 21.4849 39.3531 21.7099C39.5582 21.9349 39.7209 22.202 39.8319 22.496C39.9429 22.7899 40 23.105 40 23.4232Z" fill="#FF4D1D"/>
</g>
<defs>
<clipPath id="clip0_1009_802">
<rect width="8" height="7" fill="white" transform="translate(32 21)"/>
</clipPath>
</defs>
</svg>
