<svg width="40" height="40" viewBox="0 0 40 40" fill="none" xmlns="http://www.w3.org/2000/svg">
<path d="M35 0H5C2.1875 0 0 2.26562 0 5V27.5C0 30.3125 2.1875 32.5 5 32.5H12.5V39.0625C12.5 39.6875 12.8906 40 13.4375 40C13.5938 40 13.75 40 13.9844 39.8438L23.75 32.5H35C37.7344 32.5 40 30.3125 40 27.5V5C40 2.26562 37.7344 0 35 0ZM36.25 27.5C36.25 28.2031 35.625 28.75 35 28.75H22.5L21.4844 29.5312L16.25 33.4375V28.75H5C4.29688 28.75 3.75 28.2031 3.75 27.5V5C3.75 4.375 4.29688 3.75 5 3.75H35C35.625 3.75 36.25 4.375 36.25 5V27.5Z" fill="white"/>
</svg>
